<svg xmlns="http://www.w3.org/2000/svg" fill="none" style="height:95%;width:95%" viewBox="0 0 690 151"><path fill="#fff" d="M68.8 142.4c15.2 0 29.2-6.8 37.7-17.6 1.3-1.7 1-3.3-1-4.7L95 110.8c-2-1.2-3.4-.7-5 1a26 26 0 0 1-21.2 10.8 26.5 26.5 0 0 1-27.1-27.4c0-16 11.7-27.5 27-27.5a26 26 0 0 1 21.5 11c1.5 1.7 3 2 4.8.8l10.5-9c1.8-1.4 2.3-3.3.9-5A48 48 0 0 0 68.8 48c-27.7 0-49 19.4-49 47.2 0 27.7 21.3 47.2 49 47.2Zm62.2-2c2.4 0 3.6-1.2 3.6-3.5V91.6C134.6 76 141 68 152.3 68c1.8 0 4.2.2 6.9.8 2.2.5 3.7-.2 4.3-2.3l3.4-13.1c.5-2-.3-3.7-2.3-4.3a28.3 28.3 0 0 0-33 13.3l-2.3-9.5c-.5-2.2-2-3.1-3.9-3.1H116c-2.2 0-3.5 1.3-3.5 3.5l.1 83.5c0 2.3 1.3 3.5 3.5 3.5h15ZM390.4 48c-11.5 0-23.4 5-30.9 14.3A29.2 29.2 0 0 0 334 48c-9.2 0-18.7 3.3-27.7 12.2l-1.9-7.2c-.5-2.2-1.9-3.1-3.8-3.1H291c-2.2 0-3.5 1.3-3.5 3.5v83.5c0 2.3 1.3 3.5 3.5 3.5h15c2.3 0 3.5-1.2 3.5-3.5V86.3c0-11 7.3-19 18.3-19 11.3 0 16.6 8.3 16.6 19.3V137c0 2.3 1.2 3.5 3.5 3.5h15c2.4 0 3.5-1.2 3.5-3.5V86.3c0-11 7.5-19 18.3-19 10.9 0 16.4 8.3 16.4 19.3V137c0 2.3 1.3 3.5 3.5 3.5h15c2.3 0 3.5-1.2 3.5-3.5V83c0-19.6-12.4-34.9-32.7-34.9Zm94.6 0a45 45 0 0 0-30.4 11.6l.1-47c0-2.3-1.2-3.5-3.5-3.5h-15c-2.3 0-3.6 1.2-3.6 3.5l-.1 124.3c0 2.3 1.3 3.5 3.5 3.5h9.5c2 0 3.3-1 3.8-3l2.6-9.6c8 9.3 20 14.6 33.1 14.6a46 46 0 0 0 46-47.2A46 46 0 0 0 485 48Zm-3.6 74.6a27.5 27.5 0 1 1 0-55 27.5 27.5 0 0 1 0 55Zm83.6 19.8a41 41 0 0 0 13.8-2c2-.8 2.8-2.5 2.1-4.5l-3-10.8c-.7-2.1-2.1-2.9-4.4-2.2-2.2.7-4.3 1-6 1-5.5 0-9-3.2-9-10.4V12.6c0-2.3-1.2-3.5-3.5-3.5h-15c-2.3 0-3.5 1.2-3.5 3.5v103.5c0 17 11.7 26.3 28.4 26.3ZM625.1 48c-25.8 0-45.3 18.6-45.3 47.2a45 45 0 0 0 46.3 47.2c13.8 0 27.2-5.8 37.3-16.4 1.7-1.8 1.7-3.6 0-4.8l-8.3-9.3c-1.7-1.2-3-1.2-4.6.4a33.8 33.8 0 0 1-23.8 10.6 24.4 24.4 0 0 1-25.3-24.6h64.4c2.4 0 3.7-.9 3.7-4 0-27.7-18.5-46.3-44.4-46.3Zm.5 18.2c9.3 0 18.4 5 21 16.6h-43.7a22.9 22.9 0 0 1 22.7-16.6Z"/><path fill="#fff" fill-rule="evenodd" d="m220.7 38.4-.3.1-.1.1h-.5v.1l-.3.1h-.3v.7h-.1v.1l-.1.2v.4l-.1.1-.1.1v.2l-.1.1v.1h-.1v.2l-.1.1v.2h-.2v.1l-.1.1v.1h-.2v.2h-.1v.1h-.1l-.1.2v.1h-.1v.1l-.2.1-.1.1v.1h-.1v.1l-.1.1h-.1v.1l-.1.1-.1.1h-.1l-.1.1-.1.1v.1h-.1v.1h-.1v.1l-.1.5v.5l.1.1v.2h.1v.2h.1v.1h.1v.1l.1.1h.1v.1l.2.1.1.1v.2h.1c0 .1 0 .1 0 0l.1.2h.1v.1h.1l.1.1c0 .1 0 .1 0 0l.1.1.1.1.1.1v.1h.1l.1.1v.1h.1v.1h.1l.1.1v.1l.1.1h.1v.1l.1.1.1.1v.1h.1v.1h.1l.1.1v.1h.1v.1c0 .1.2.1.2 0v.1l.1.1v.1l.1.1h.1v.2h.3v.1h.4v.2h.2c0 .1.1.1.1 0l.5.1h.2l.3.1h.7l.1-.1h.4c0-.1 0-.1 0 0V49h.2v-.1h.1l.2-.1h.1l.1-.1h.2v-.1h.1v-.1h.2c0-.1 0-.1 0 0l.2-.2h.1V48l.2-.1.1-.1h.3l.2-.1v-.1h.4l.2-.1c0-.1 0-.1 0 0 0-.1 0-.2.1-.1h.2c.2 0 .3-.1.3-.2h.1l.1-.1h.1l.1-.2h.1l.1-.2.1-.1v-.1h.1c0-.1 0-.1 0 0l.1-.1v-.1h.1v-.2h.1l.1-.1h.1v-.1h.1v-.1h.1v-.1h.1v-.1h.1v-.1h.2v-.1h.1v-.1l.1-.1h.3V45l.1-.1v-.1h.1l.1-.1v-.2h.2v-1.2l-.1-.2V43h-.2v-.4l-.1-.2v-.1l-.1-.1h-.1v-.1l-.1-.1v-.2l-.1-.2v-.1l-.1-.1-.1-.2V41h-.2v-.1h-.1v-.1l-.1-.1c0-.2 0-.2-.2-.2v-.1h-.1v-.1l-.2-.1-.2-.1h-.2V40h-.1v-.1h-.2l-.1-.1h-.2l-.1-.1h-.1v-.1h-.1l-.3-.1h-.8l-.2-.1-.1-.1h-.2l-.2-.1h-.9l-.8-.1h-.1l-.2-.2h-.5l-.1-.1v-.1h-.2l-.2-.1h-.1v-.1h-.2v-.1h-.4Zm42 10.1h-.2v.1h-.5l-.1.1h-.1v.1h-.2v.1h-.1l-.1.1h-.1l-.1.1h-.2v.1h-.1v.4h-.1v.2l-.1.1v.1l-.1.1v.1h-.1v.3l-.1.1v.2h-.1v.2s-.1.1-.1 0v.1l-.1.2h-.1v.2h-.1v.2h-.1v.2l-.1.1v.1h-.1v.2h-.1v.1l-.1.1v.1h-.1v.2l-.1.2h-.1v.2l-.1.1v.1l-.1.1-.1.1v.2h-.1v.1c-.1 0-.1 0 0 0h-.1s0 .1 0 0v.1h-.1v.1h-.1v.1h-.1v.1h-.1l-.1.2-.1.1-.1.2v.1l-.2.1v.1h-.1v.1h-.1v.1h-.2v.1h-.1v.1h-.1v.1h-.1v.2h-.1l-.1.1h-.1v.1h-.1v.1s-.1 0 0 0l-.1.1v.2l-.1.2v.1l-.1.1v.2h-.1v4a30.6 30.6 0 0 1-.3 4.8v.1h-.1v.2l-.1.1v.1h-.1v.2s0 .1-.1 0v.2h-.1v.1h-.1v.1h-.1l-.1.2s-.1 0 0 0h-.1v.1h-.1v.1h-.1v.1h-.1v.1h-.1l-.1.1-.1.1h-.2v.1h-.1v.1h-.1v.1h-.2v.1l-.2.1v.1h-.2l-.1.2h-.1v.1h-.2l-.1.1v.1h-.1l-.1.1-.1.1v.1h-.1c-.1 0-.2 0-.2.2v.1h-.1l-.2.2-.2.2v.1h-.1v.1h-.1l-.1.1v.1h-.1v.2h-.1v.1h-.1v.1h-.1v.1l-.1.1-.1.1v.1a2.3 2.3 0 0 0-.5.5h-.1l-.1.2h-.1v.2h-.1l-.1.1v.1l-.1.1v.1h-.1v.2l-.1.1v.2l-.1.2-.1.1v.1l-.1.2v.1l-.1.1v.2h-.1v.1l-.1.1v.1l-.1.1v.1h-.1v.1l-.1.1v.2h-.1v.3l-.1.1v.2h-.1v.1l-.1.2h-.1v.1l-.1.2h-.1c0 .1 0 .1 0 0v.1h-.1l-.1.1-.1.1-.1.1v.1h-.1v.1l-.1.1h-.1v.1h-.1v.1l-.1.1h-.1v.1h-.1v.1s-.1.1-.2 0v.1l-.1.2s-.1 0 0 0h-.1v.1h-.1l-.1.1-.1.1h-.1l-.1.1h-.1v.1h-.1l-.1.1-.1.1h-.2v.1h-.2v.1h-.2v.1h-.1l-.1.1-.1.1h-.2v.1h-.2v.2h-.1l-.1.1h-.1v.1h-.1l-.1.1h-.1l-.1.1h-.1v.1h-.2v.1h-.1l-.1.1h-.3v.1h-.1v.2h-.1v.1h-.1v.1h-.1v.1h-.1v.1h-.1v.1h-.1l-.1.1h-.1v.1h-.1l-.1.1h-.2v.1l-.1.1h-.1l-.1.1h-.2c-.1 0-.2 0-.1.1h-.3v.1h-.2v.1h-.3v.1h-.2l-.1.1h-.2l-.2.1-.1.1h-.1l-.1.1h-.5v.1h-.2v.1h-.4l-.1.1h-.2l-.2.1h-.1l-.1.1h-.2v.1h-.2l-.1.1h-.2v.1h-.2l-.1.1h-.1l-.1.1h-.2l-.1.1h-.2v.1h-.2l-.2.1h-.1l-.2.1h-.4v.1h-.2l-.1.1h-.4l-.1.1h-.1l-.2.1h-.2v.1h-.4v.1h-.2v.1h-.4s-.1 0 0 0l-.9.1h-1l-.2-.1h-.6v-.1h-.2l-.2-.1h-.4l-.2-.1c-.2 0-.3 0-.2-.1h-.5v-.1h-.1v-.1s-.1 0 0 0h-.2v-.1h-.2V83l-.1-.1h-.2l-.2-.1h-.2l-.2-.1h-.1v-.1h-.2v-.1h-.1l-.1-.1h-.1v-.1h-.2v-.1h-.2v-.1h-.2l-.1-.1h-.2l-.1-.1h-.5l-.1-.1h-.2v-.1h-.1l-.1-.1h-.1l-.1-.1h-.1l-.1-.1h-.1l-.1-.1h-.5v-.1h-.2l-.2-.1-.3-.1h-.9a84.8 84.8 0 0 1-4.5 0h-.1l-.3.1h-.2l-.2-.1h-.2l-.1-.1h-.2v-.1h-.2s-.1-.1 0-.1h-.3l-.1-.1h-.3v-.1h-.4v-.1h-.2v-.1h-.2v-.1h-.1v-.1h-.2V80l-.2-.1h-.1l-.2-.2-.2-.1-.1-.1h-.1v-.1l-.1-.1-.1-.1-.1-.1h-.2V79h-.2v-.2h-.1l-.1-.1h-.1v-.1h-.1l-.1-.1-.1-.1-.1-.1-.1-.1h-.5l-.2-.1h-.2l-.2-.1h-.1l-.2-.1h-.1l-.1-.1h-.1l-.1-.1h-.2v-.1h-.2l-.2-.1h-1a9 9 0 0 1-1.4-.2h-.1l-.2-.1h-.5v-.1h-.2V77h-.6v-.1h-.1l-.1-.1-.2-.1-.1-.1v-.1h-.1v-.1h-.1l-.1-.1V76h-.1l-.1-.2-.1-.1-.1-.1v-.2h-.1v-.2h-.1V75h-.1v-.1l-.1-.1v-.2h-.1v-.2l-.1-.3-.1-.3v-.1l-.1-.1v-.1h-.1v-.2h-.1v-.1h-.1s0-.1 0 0V73h-.2l-.1-.1h-.1v-.1h-.1v-.1l-.1-.1-.1-.1v-.1h-.1v-.1h-.1v-.1l-.1-.1V72h-.1l-.1-.1-.1-.1-.1-.1v-.1h-.1v-.1h-.1v-.1h-.1v-.1h-.1l-.1-.1V71h-.2l-.2-.1h-.3c-.4 0-.7 0-.6-.1h-.5l-.1-.1h-.2l-.1-.1h-.1l-.1-.1h-.2v-.1h-.2v-.1h-.2v-.1h-.1l-.1-.1h-.1V70h-.1l-.1-.1h-.1v-.1h-.1l-.1-.1-.1-.1h-.1l-.1-.1v-.1h-.2v-.1h-.1l-.1-.1h-.2v-.1h-.1s-.1 0 0-.1h-.4v-.1h-.1l-.1-.1h-.1v-.1h-.1l-.1-.1h-.1v-.1h-.1l-.1-.1h-.1l-.1-.1h-.1v-.1h-.1l-.1-.1h-.1V68h-.1v-.1h-.1v-.1h-.1v-.1h-.1v-.2h-.1v-.1h-.1v-.1l-.1-.1V67h-.1l-.7-2-1-3.3-1-2.8c0-.1 0-.1 0 0v-.7h-.1V58l-.1-.1v-.2l-.1-.2v-.1s0-.1 0 0l-.1-.4v-.4l-.1-.1s0-.1 0 0V56c-.1-.1-.1-.1-.1 0v-.6h-.1v-.2l-.1-.2-.1-.1v-.1h-.1v-.2h-.1v-.2h-.1V54l-.1-.1v-.2l-.1-.2v-.1l-.1-.1v-.1l-.1-.2-.1-.1v-.2l-.1-.1-.1-.2v-.1h-.1v-.1l-.1-.1-.1-.1v-.1h-.1v-.2s-.1 0 0-.1h-.1v-.1h-.1v-.2h-.1V51s0-.1-.1 0l-.2-.1-.1-.1h-.1l-.2-.1-.2-.1h-.1s-.1 0 0 0h-.8v.1h-.2l-.2.1h-.2l-.1.1h-.3l-.1.1h-.5l-.2.1-.2.1v.1l-.1.1-.1.1v.1h-.1v.1h-.1l-.1.1v.1h-.1v.1h-.1v.1h-.1l-.1.1-.2.1v.2h-.1v.1h-.1v.1l-.1.1v.1h-.1v.2l-.1.1-.1.1v.1h-.1v.1l-.1.1v.1h-.1v.1l-.1.1-.1.1-.1.2h-.1v.1h-.1v.1l-.1.1-.1.1-.1.1-.1.1v.1h-.1v.1l-.1.1-.2.1v.1h-.1l-.1.2h-.1v.1h-.1v.1h-.1l-.1.1v.1h-.1v.1s-.1 0 0 0h-.1v.1h-.1v.1l-.2.1v.1l-.1.1-.2.2h-.1l-.1.1-.1.1v.1s-.1 0 0 0h-.1v.1l-.1.1-.1.1-.1.1s0 .1 0 0l-.1.2h-.1v.1l-.1.1-.1.1v.1l-.2.2-.1.1v.1h-.1v.1h-.1v.1h-.1v.1l-.1.1-.2.2v.1h-.1l-.1.2h-.1l-.1.2-.1.1-.2.1v.1h-.1l-.1.1h-.1v.1h-.1v.1h-.1v.1h-.1v.1h-.1l-.1.1-.2.2-.2.1h-.1v.1l-.1.1h-.1v.1h-.1v.1l-.1.1h-.1v.1l-.1.1h-.1v.2h-.1l-.1.1v.1h-.1v.1l-.2.1-.1.2h-.1v.1h-.1v.1h-.1v.1h-.1v.1l-.1.1-.2.2-.1.3c0 .1 0 .1 0 0v.3l-.1.2v.1l-.1.2v.4h-.1v.4l-.1.2-.1.2v.4l-.1.2-.1.1v.2l-.1.1v.3l-.1.1v.4s0 .1-.1 0v.3l-.1.1v.1l-.1.1v.4l-.1.3-.1.2v.1l-.1.1v.2h-.1v.2l-.1.1v.2l-.1.2v.1l-.1.2h-.1v.3l-.1.2v.2h-.1v.2h-.1v.2l-.1.1v.2l-.1.1v.2l-.1.2-.1.1v.2l-.1.1v.1l-.1.1v.2h-.1v.2l-.1.1v.2h-.1v.1l-.1.1v.2h-.1v.4h-.1v.2l-.2.3v.8a4 4 0 0 0-.1.2v4.1a21 21 0 0 0 .2 1.8v.6l.1.1v.4h.1v.5l.1.2v.5l.1.1v.2l.1.1.1.2v.2l.1.1v.3l.1.2.1.4v.3l.1.1v.3l.1.1v.1l.1.4v.2a26.8 26.8 0 0 1-.1 3.6v.4l-.1.2v.2l-.1.2v.6l-.1.3v.1l-.1.2v.2l-.1.1v.1l-.1.1v.1l-.1.1v.1l-.1.2-.1.2v.1l-.1.2v.1l-.2.4v.3l-.1.1v.4l-.1.1v.3l-.1.1v.4l-.1.2v.2l-.1.2v.5l-.1.4v.3l-.1.3v.5l-.1.4v.8l-.1.3v.2l-.1.2v.7l.1.2v.5c0 .5 0 .7.1.5v.3l.1.1v.1l.1.1v.1l.1.1v.1h.1v.2h.1v.1h.1v.2h.1v.2l.2.1v.1l.1.1.1.1v.1h.1v.2l.1.2.1.1.1.1v.1l.1.1.1.2h.1v.2h.1v.1l.1.1v.1h.1v.2h.1v.1l.1.2.1.1v.1h.1v.1l.1.1v.1h.1v.1l.1.1v.2h.1v.2h.1v.2s0 .2 0 0l.1.2.1.2v.2l.1.1v.1l.1.1v.2l.1.2h.1v.2l.1.1.1.3h.1v.1l.2.2.1.2h.1v.2h.1v.1h.1v.1l.1.1v.1h.1v.2h.1v.1l.1.1s0 .1 0 0v.1h.1l.1.2.1.1h.1v.2h.1l.1.1v.1h.1v.1h.1v.1h.1l.1.1.1.1h.1l.1.1.1.1h.1l.1.1v.1h.1v.1h.1l.1.1h.1v.1l.2.1.1.1.2.1.1.1.1.1h.1v.1h.1v.1h.1v.1h.1v.1h.2v.1l.1.1.1.1.1.1v.1h.1l.1.1v.1h.1v.1h.1v.1h.1v.1l.1.1v.1h.1v.1l.1.1.2.2v.2l.2.1v.1l.1.1.1.2.1.1v.1h.1v.2h.1v.4h.1v.1h.1v.2l.1.1v.1l.1.1.1.1v.1l.1.2v.1l.1.1v.2h.1v.2l.1.1v.1l.1.1v.1l.1.1v.1l.1.1v.2h.1v.2h.1v.2l.1.1.1.3v.2h.1v.2l.1.2.1.1v.2l.1.2v.1l.1.2v.2h.1v.2l.1.1v.2h.1v.2l.1.1v.2l.1.1v.2h.1v.1l.1.1v.1l.3.2v.1s0 .1 0 0v.1h.1v.1h.1v.1h.1l.1.1h.1l.2.3.1.1h.1v.1l.1.1.1.1.1.1.2.2h.1l.1.1v.1h.2v.1h.2l.1.1h.1l.1.1h.1s.1 0 0 0l.2.1.2.1.1.1.1.1h.1v.1h.1v.1h.1l.1.1.1.1.1.1h.1v.1h.1v.1h.1v.1h.1l.1.1c0 .1 0 .1 0 0l.1.1h.1v.1l.1.1.1.1.1.1.1.1h.1l.1.1.1.1.1.2h.1l.1.1h.1v.1l.1.1h.1v.1l.1.1v.1h.1l.1.1v.1h.2v.1h.1v.1l.2.2h.1l.1.1h.1l.1.1h.1v.1h.1l.1.1h.1v.1h.2v.1h.1v.1h.1v.1h.1l.1.1.2.1v.1h.1l.1.1h.2l.1.1h.2l.1.1h.2c.1 0 .2.1 0 .1h.2l.1.1h.1l.1.1h.1v.1h.2v.1h.2v.1h.1v.1h.2v.1h.1v.1h.1l.2.1v.1h.1l.2.1h.1l.1.1h.3v.1h.1l.1.1h.2l.1.1h.1l.1.1h.1l.2.1.1.1.1.1.2.1h.2v.1h.1c.1 0 .2 0 .1.1h.2l.1.1h.1l.2.1h.1l.1.1h.2l.1.1h.1s.1 0 0 0l.2.1.1.1h.1l.2.2h.1l.3.2v.1h.1l.1.1h.1v.1h.1v.1h.1v.1h.1v.1h.2v.1l.2.1v.1h.1v.1h.1l.1.1h.1v.1h.2v.1l.1.1h.1v.1h.1v.1c.1 0 .1 0 0 0h.1v.1h.2v.1l.1.1h.1l.1.1h.1v.1h.1v.1h.2v.1h.1l.2.1.2.1h.1v.1h.2l.1.1h.1l.1.1h.1v.1h.1l.1.1h.1v.1h.2v.1h.1l.2.1.1.1h.1v.1l.2.1.1.1h.1l.1.1h.1l.1.1h.1l.1.1h.1l.1.1h.1v.1h.2v.1h.1c0 .1 0 .2.3.2h1l.2.1h.1l.2.1h.3l.2.1h.4l.1.1h.2l.1.1h.2l.1.1h.2l.1.1h.2l.1.1.1.1h.2v.1h.2v.1h.1l.1.1s.1 0 0 0h.2s.1 0 0 .1h.4v.1h.2l.1.1.2.1h.1l.2.1h.1l.1.1.2.1h.1l.1.1h.2l.1.1h.2v.1h.1l.4.1h.2l.1.1h.2l.2.1.2.1h.2l.2.1h.4l.5.2h.6v.1h.4l.2.1h.5l.6.1.5.1h.2v.1a19.8 19.8 0 0 0 2.7 0h.2l.2-.1a3 3 0 0 0 1-.1h.1l.2-.1.2-.2h.2l.1-.1h.2l.2-.1.2-.1h.1v-.1h.2l.2-.1h.2l.1-.1h.1l.1-.1h.1l.2-.1h.1v-.1h.3l.3-.1h.1l1.4-.1a14.6 14.6 0 0 1 2.6.2h.2l.2.1h.2l.2.1s.1 0 0 0l.2.1h.4l.3.1.3.1h.5l.2.1h.2c-.1 0 0 .1 0 .1h.2l.3.1h.2l.1.1h.2l.2.1h.2l.3.1h.5l.3.1h.1a1.9 1.9 0 0 1 .6.2h.3l.1.1h.2l.2.1.3.1h.9l.2.1h.7c-.1.1 0 .1.5.1h.8l.1-.1h.1l.2-.1v-.1h.4v-.1h.1l.1-.1h.3v-.1h.2l.1-.1h.1l.1-.1.3-.1v-.1h.2v-.1h.2l.1-.1h.1v-.1h.1v-.1h.1l.2-.1.1-.1v-.1h.1l.2-.2.1-.1.1-.1h.1l.1-.1v-.1h.2v-.1h.1s.1 0 0 0l.1-.1h.2v-.1h.1v-.1l.2-.1v-.1h.1v-.1h.1v-.1h.1l.1-.1h.1v-.1h.1s0-.1 0 0v-.1h.1l.1-.1.1-.1.1-.1.1-.1.1-.1.1-.1.1-.1h.1v-.1h.1v-.1l.2-.2h.1l.1-.1h.1l.3-.3v-.1l.2-.1.1-.1.1-.1.1-.1.1-.1.1-.1h.1l.1-.1s.1 0 0 0h.1v-.1h.1v-.1l.2-.1v-.1h.1l.3-.2.2-.2v-.1h.1l.1-.1.1-.1.2-.1.1-.1.2-.1.1-.1h.1l.1-.1.1-.1h.1v-.1h.1l.1-.1.1-.1h.1s.1-.1 0-.1h.1l.1-.1h.2v-.1l.2-.1.2-.1.1-.1h.1v-.1h.2v-.2s.1 0 0 0h.2l.1-.1h.1l.1-.1h.2l.1-.1h.2l.1-.1h.1l.3-.2h.1l.2-.1.1-.1h.2v-.1h.1l.1-.1h.2l.1-.1h.2v-.1h.1l.1-.1h.1l.1-.1h.2v-.1h.2v-.1h.1v-.1h.1v-.1h.1v-.1h.1s0-.1 0 0v-.1h.1l.1-.1.1-.1.1-.1v-.2h.1l.1-.1v-.1h.1l.1-.1.1-.1.2-.2.1-.1v-.1h.1v-.1h.1v-.1h.1v-.2h.1l.1-.1v-.1h.1v-.1h.1v-.2l.1-.1.1-.1.1-.1h.1v-.2h.1v-.1h.1v-.1l.2-.2h.1v-.1h.1l.2-.2h.1v-.1h.1v-.1h.1v-.1h.1l.1-.1h.1v-.1h.1v-.1h.2v-.1h.1l.1-.1.1-.1h.1l.1-.1h.2v-.1l.2-.1h.2l.2-.1h.2v-.1h.2l.1-.1h.1l.1-.1h.1v-.1h.1l.1-.1h.1v-.1h.2v-.1h.2v-.1h.2l.1-.1h.1l.1-.1h.1l.1-.1h.1l.1-.1h.1l.2-.1h.2v-.1h.1l.1-.1h.2l.1-.1h.2v-.1h.1v-.1h.1l.2-.1.1-.1.1-.1h.1l.1-.1.2-.1h.1v-.1h.2v-.1h.1v-.1h.1l.1-.1h.1v-.1h.1l.1-.1h.1v-.1h.1v-.1h.1l.2-.1v-.1h.1l.1-.2h.1v-.1l.1-.1v-.1h.1v-.1h.1v-.2l.2-.2v-.1l.1-.1v-.2h.1v-.1h.1v-.1l.1-.2.1-.1v-.1l.1-.1.1-.1v-.1l.1-.1.1-.2.1-.1v-.1l.1-.2v-.1l.1-.1v-.2h.1v-.2h.1v-.1l.1-.2v-.1l.1-.1.1-.2.1-.2v-.1l.1-.1v-.4l.1-.1v-.2l.1-.2.1-.2.1-.2.1-.1v-.1h.1v-.1l.1-.2h.1v-.2l.2-.1v-.1l.1-.2.1-.2h.1v-.1l.1-.1v-.1l.2-.1v-.1l.1-.1v-.1h.1l.2-.3.1-.1.1-.1.1-.1.1-.1v-.1h.1v-.1l.2-.1v-.1l.1-.1.2-.2v-.1h.1v-.1l.2-.1v-.1h.1v-.1h.1v-.1h.1v-.1h.1l.1-.1v-.1h.1v-.1l.1-.1v-.1h.1l.1-.1v-.1l.2-.1v-.1h.1l.1-.2h.1v-.2h.2s0-.1 0 0v-.1l.1-.1s.1 0 0 0l.1-.1.1-.1.1-.1v-.1h.1l.1-.2.1-.1.1-.1.1-.1v-.1h.1v-.1l.1-.2.1-.1.1-.2.1-.1v-.1h.1v-.1l.1-.1.1-.1v-.1h.1v-.1h.1v-.1l.1-.1.1-.2h.1v-.2h.1v-.2h.1l.1-.1v-.1h.1v-.1l.1-.1h.1v-.1l.1-.1.1-.1v-.1h.1l.1-.2v-.1h.1v-.1l.1-.1v-.1l.2-.1v-.1l.1-.1v-.1h.1v-.1h.1V106a24.8 24.8 0 0 1 .2-2.4v-.5l.1-.1v-.1l.1-.2v-.3l.1-.1v-.8l.1-.1v-.6h.1v-.6l.1-.2v-.6l.1-.1V99l.1-.2v-.4l.1-.2V98l.1-.2v-.1a23.7 23.7 0 0 0 .3-1.2v-.1l.1-.2V96l.1-.1v-.2l.1-.2v-.1l.1-.1v-.1l.1-.2.1-.1v-.3h.1v-.2l.1-.1V94h.1v-.2h.1v-.3h.1v-.2l.1-.2V93h.1v-.2h.1v-.2l.1-.1v-.1l.1-.1.1-.2v-.4h-.1v-.5l-.1-1.6a6.7 6.7 0 0 0-.1-1.5V88l-.1-.1v-.2h-.1v-.1h-.1v-.2l-.1-.1v-.1l-.1-.1v-.2h-.1v-.2h-.1v-.2l-.1-.2V86l-.1-.1v-.2l-.1-.1v-.1l-.1-.2v-.1l-.1-.2v-.2l-.1-.2-.1-.2-.1-.1v-.1l-.1-.2h-.1v-.5h-.1v-.2h-.1v-.2l-.1-.1v-.2l-.2-.3v-.2l-.1-.2v-.4l-.1-.2v-.4l-.1-.1v-.2l-.1-.1v-.4h-.1v-.1l-.1-.1V80h-.1v-.2l-.1-.1v-.2l-.1-.1v-.2h-.1V79l-.1-.2v-.1h-.1v-.2h-.1v-.1l-.2-.3h-.1V78l-.1-.1-.1-.1v-.2l-.2-.3V77l-.1-.1v-.2h-.1v-.4h-.1v-.2l-.1-.1v-.2l-.1-.1v-.2l-.1-.2-.1-.3v-.5l-.1-.5v-.6l-.1-.3v-1.8a9.2 9.2 0 0 0-.2-1.9 18.5 18.5 0 0 1 0-2.9v-2.7a19 19 0 0 0-.2-2.8v-.1l-.1-.3-.1-.2v-.1l-.1-.2V60l-.1-.1v-.1h-.1s0-.1 0 0v-.1h-.1v-.2h-.1v-.1l-.1-.1h-.1V59h-.1l-.1-.2v-.1l-.1-.2-.1-.1v-.1h-.1v-.1l-.1-.1V58l-.1-.2-.1-.1v-.2h-.1v-.1l-.1-.1-.2-.2V57h-.1v-.1h-.1l-.1-.2-.2-.2-.1-.2h-.1l-.1-.1V56h-.1l-.1-.1-.1-.1v-.1h-.1v-.1h-.1v-.1l-.1-.1-.1-.1-.1-.1-.1-.1-.1-.2-.1-.1s-.1 0 0 0l-.1-.2h-.1v-.2h-.1v-.1l-.1-.1-.2-.2v-.1h-.1v-.2h-.1s0-.1 0 0l-.1-.1v-.1h-.1v-.1l-.1-.1h-.1l-.2-.2V53h-.1c-.1 0-.1 0 0-.1h-.1v-.1l-.2-.1v-.2h-.1v-.2h-.1v-.1h-.1V52h-.1c0-.1 0-.1 0 0v-.1h-.1v-.1l-.1-.1s-.1 0 0-.1h-.1v-.1h-.1l-.1-.2-.1-.1c-.1 0-.1 0 0 0V51h-.1l-.1-.1-.1-.1v-.1h-.1v-.1s-.1 0 0 0h-.1v-.1h-.1v-.1l-.1-.1-.1-.1-.1-.1V50l-.1-.1h-.1v-.2h-.1l-.1-.1v-.1l-.1-.1v-.1l-.2-.2-.1-.1h-.2l-.1-.1h-.2l-.1-.1h-.1l-.2-.1h-.3l-.2-.1h-2.4Zm-19.4 2.2h-.1v.1h-.1l-.1.2h-.1l-.2.1v.1c-.1 0-.1 0 0 0h-.2l-.1.1-.1.1h-.1l-.1.1v.1h-.1v.1h-.2.1c0-.1 0-.1 0 0h-.1c0 .1 0 .1 0 0v.1l-.1.1h-.1c0 .1 0 .3-.2.3v.1l-.1.2h-.1c-.1 0-.1 0 0 0h-.1l-.1.2c0-.1 0 0 0 0v.2l-.2.3v.2h-.2v.2l-.1.1-.1.3h-.1v.1l-.1.2-.1.3-.1.2c0 .2-.1.3-.2.3l-.1.2v.2l-.2.3v.1c-.1 0-.2 0-.2.2l-.1.2v.1c-.2 0-.2 0-.2.2l-.1.1v.1c-.1 0-.2 0-.2.2 0 0-.1 0 0 0h-.1v.1h-.1v.1h-.1c-.1 0 0 0 0 0h-.1l-.1.1v.1l-.3.1-.1.1v.1h-.2v.2l-.1.2-.1.2s0 .1 0 0l-.1.1a37.3 37.3 0 0 1-.4 2v1.2l.2.1v.3l.1.1h.1v.1l.1.1h.1l.1.2h.1v.1h.3l.3.1h-.1v.1h.2v.2h.5l.3.2h.5l.6.2a50.9 50.9 0 0 1 1.3 0l.1-.2v.1h.1l.1-.1h.1l.1-.1h.2V63h.1v-.1l.1-.1h.1l.1-.1.2-.1v-.1l.2-.1v-.1c.1 0 .1 0 0 0h.1v-.1h.1l.1-.1.1-.1.1-.1.2-.2h.1v-.1h.2v-.1h.4v-.4h.1l.1-.2v.1l.1-.1.1-.1h.1v-.2h.2l.1-.1v-.1h.1l.1-.1c0-.1 0-.1 0 0V60h.1l.1-.2h.2-.1l.1-.2v-.1h.2v-.2h.1l.1-.1V59h.1v.1l.1-.2.1-.3v-.1l.2-.3.1-.1.1-.2.1-.2h.1v-.1h.1v-.8l.1-1v-.3h-.1v-.7l-.1-.2v-.1l-.1-.2v-.2h-.2V54s-.1 0 0-.2v-.2h-.1v-.1l-.1-.2h-.1v-1.1h-.2V52v.1-.5h-.1l-.1-.1v-.2l-.2-.1h-.1V51h.1a207 207 0 0 1-2.6-.3Zm-1.2.7h.1Zm4.1 0c.1 0 0 0 0 0Zm-43 .4-.2.1h-.1l-.3.1-.2.1-.2.2-.2.1h-.4v.1l-.3.1-.2.2s-.2 0-.8.6l-.6.7v.2c.1 0 .1 0 0 0v.4h.1c0 .1 0 .1 0 0l.1.1v.4h.1v.4s0 .1 0 0l.2.1v.5h.1v.4l.1.1.1.2v.3h.1v.2l.2.2v.2l.2.2.1.2v.1a18.6 18.6 0 0 0 1.2 1.3l.3.3.4.3.2.2h.1l.3.2.2.2.3.2.2.3h.1l.2.1.1.1.2.1.4.4.4.4h.1l.2.2s.1.1.1 0l.3.3s.1.1 0 .1h.4l.1.2h.2c0 .2 0 .2.1.1h.2c0 .1 0 .1 0 0h.5c0 .2 0 .2.1.1h.8a10.8 10.8 0 0 0 1-1l.1-.2v-.5h.1v-1h-.1c0-.2-.2-.4-.1-.5V60h-.1l-.1-.2c0-.1-.1-.1 0-.2 0-.1 0-.2-.2-.3V59c0-.1-.1-.2 0-.2h-.1l-.1-.3V58c-.2 0-.2-.1-.1-.2v-.5c.1 0 .1-.2 0-.2v-.8h-.1v-.2l-.2-.3a1 1 0 0 1-.2-.2v-.2l-.2-.2v-.1a35.2 35.2 0 0 0-2.7-2.7h-.1l-.2-.2s-.1-.1-.2 0v-.1h-.1l-.1-.1h-.2c0-.2-.2-.3-.2-.2h-.3c-.1 0 0 0 0 0h-.1c-.1-.2-.2-.2-.3-.1h-.8Zm38.4.2v.1-.1Zm-.3.4Zm-.9 1.2s0 .1 0 0c.1 0 .1 0 0 0Zm7 2.4h-.1Zm-8.2.1h.1Zm7.9 1.8h-.1Zm-3.7 4.3c-.1 0-.1 0 0 0Zm-.3.2c-.1 0-.1 0 0 0 0 .1 0 .1 0 0Zm-37.2.1v.2c.1 0 0 0 0-.1Zm35.7.9Zm24.5 4.4h-.2.7c.1 0 .2 0 .1.1h.1l.1.1h.1v.1h.1v.1c.1 0 .1 0 0 0h.2v.1h.1l.1.1v.1h.1l.1.1h.1v.1h.1v.1h.1v.1h.1v.2h.1v.1l.1.2V73l-.1.1h-.1v.1l-.1.1-.1.1h-.1l-.1.1h-.1l-.1.1-.1.1v.8l-.1.1v.2l-.1.1v.2l-.1.1-.1.1v.2h-.1v.1s0 .1 0 0l-.1.1-.1.1v.1l-.1.1-.1.1-.1.1h-.1l-.1.1h-.1l-.1.1h-.8v-.1h-.1l-.1-.1-.1-.1V76c-.1-.1-.1-.1-.1 0v-.2a2.4 2.4 0 0 0-.2-.6v-.1l-.1-.2-.1-.1h-.1v-.1l-.1-.1v-.1h-.1v-.2l-.1-.1v-.1h-.1V74l-.1-.1h-.1l-.2-.3v-.2l-.1-.3v-.2h-.1s-.1-.1 0-.2h-.1v-1l.1-.1V71c.1 0 .1-.1.1 0v-.2h.1v-.1h.1v-.1h.1v-.1h.1l.1-.1h.1l.1-.1h.1v-.5h.1v-.1l.1-.1v-.3l.1-.1V69l.1-.1v-.1h.1v-.3h.1v-.1l.1-.1.2-.1V68l.1-.1h.1l.1-.1h.2l.2-.1h.2Zm2.3 2.7V70v.5Zm0 1.9v-.6.6ZM181.8 75l3.2 1.4h.2v.2l.1.2v.1l.1.1v.1l.1.2v.4l.1.1v.1h.1v.2h.1s0 .1 0 0v.2l.1.2v.1h.1v.2l.1.2.1.2v.1l.1.1v.3l.1.1v.1l.1.2v.9a6.5 6.5 0 0 1 0 1.4v.1l-.1.1-.1.1-.1.1-.1.1h-.2v.4l-.1.2v.2h-.1l-.1.1v.1l-.2.1-.2.1h-1V84h-.1l-.1-.1-.1-.1h-.1v-.1h-.1v-.1h-.2v-.1h-.2v-.1l-.1-.1V83h-.1l-.2-.1v-.1h-.1v-.1h-.1v-.1h-.1v-.1h-.1v-.1h-.1v-.1h-.1v-.2h-.1s-.1-.1 0-.2h-.1l-.1-.1v-.1h-.1v-.1h-.1v-.1h-.1v-.1h-.1v-.1h-.1v-.1h-.1v-.1h-.1V81l-.1-.1v-.1l-.1-.1v-.2h-.1V79l.1-.1v-.2h.1v-.4l-.1-.2-.1-.2v-.4c0-.1 0-.1-.1 0a14.4 14.4 0 0 1 0-2.2l.1-.2.1-.1.1-.1.6.1Zm-1 5v-.1c0-.1 0-.1 0 0v.1Zm81.4 2.5h.3v.1h.1l.2.2h.2v.1s.1.1.1 0v.1c.1 0 .1.1.1 0v.1h.1v.1h.2v.1h.1l.1.1v.1s0 .1 0 0l.1.1s.1.1 0 .1h.1v.1h.1v.1h.1v.1l.1.1v.1h.1v.1l.1.1v.1h.1v.1h.1v.1l.1.1.1.1v.1h.1v.1l.1.2.2.3.1.1.1.1.1.1.1.1.1.2v.1l.1.1v.4l.1.4c0 .1 0 .2.1.1v.2l.1.2.1.2v.2l.1.1h.1v.2l.2.1v.1l.1.1v.2h.1v.1l.1.2v.2h.1v.1l.1.1v.1h.1v.2l.1.1v.2h.1v.2l.1.1v.1h.1v.2l.1.1v.2c.1 0 .1.6 0 .8v.4l-.1.2v.1h-.1v.2h-.1v.1h-.1v.1l-.1.1-.1.1h-.1v.1h-.1v.1h-.1v.1s-.1 0 0 0l-.1.1h-.1v.1h-.1v.1h-.2l-.1.1h-.1l-.1.1h-.1v.1h-.2v.1h-.2v.1h-.2v.1l-.2.2-.2.1h-.1v.1h-.1l-.1.1h-.1v.1l-.1.1-.1.1-.1.1h-.2v.1h-.1v.1h-.2v.1l-.1.1h-.1l-.2.1H262l-.1-.1h-.1v-.1h-.1v-.1h-.1v-.1h-.1l-.1-.1s-.1 0 0 0l-.1-.1-.2-.2h-.1v-.1h-.2l-.1-.1h-.1l-.2-.2v-.1h-.1l-.2-.2-.1-.1-.2-.1-.1-.2h-.1s-.1 0 0-.1h-.2v-.1h-.2l-.1-.2h-.1l-.1-.1h-.1v-.1l-.2-.2h-.1c0-.1 0-.1-.1 0V93h-.1l-.1-.1h-.1l-.1-.1-.1-.1-.1-.1h-.1v-.2h-.4v-.1h-.1v-.1h-.2V92h-.1l-.1-.1-.1-.1-.1-.1-.1-.1h-.1v-.1l-.1-.1h-.1v-.1h-.1v-.1h-.1V91l-.1-.1-.1-.1h-.1v-.1h-.1v-.1l-.1-.1-.1-.1v-.1h-.1v-.1h-.1v-.1h-.1V90h-.1l-.2-.1v-.4h-.1v-.1l-.1-.2h-.1V89h-.1v-.2h-.1v-.2h-.1v-.1l-.1-.1v-.2c-.1 0-.1 0 0 0v-.4h.1v-.2h.1v-.1h.1v-.1l.2-.1v-.2h.1l.1-.1.1-.1v-.1h.1v-.1l.1-.1.1-.1.1-.1.1-.2h.1v-.1h.1V86h.2v-.1h.1v-.1h.1v-.2h.1v-.1h.1l.2-.2.1-.1V85h.1l.1-.1.1-.1v-.1h.1l.1-.1v-.1l.3-.3h.1v-.1h.1V84h.1l.1-.1v-.1h.1v-.1h.1v-.1h.1v-.2l.2-.1.1-.1V83h.1l.1-.1v-.1h.1l.2-.1v-.1h.1v-.1h3.2ZM185 84.1h-.1s.1 0 0 0Zm56 6.8h1.1l.1.1h.1v.1h.1v.1h.1l.2.2v.2l.1.1v1.4l-.1.1-.1.2v.1l-.1.3v.4s-.1.1-.1 0v.3h-.1v.2h-.1v.4l-.1.2v.1l-.1.3-.1.2v.2h-.1v.1l-.1.4v.1h-.1v.3l-.1.1v.2h-.1v.2l-.1.2v.1l-.1.2-.1.1v.1l-.1.1v.2l-.1.2-.1.2v.1l-.1.2-.1.1v.1h-.1v.1h-.1v.2h-.1v.2h-.1v.2h-.1v.1l-.1.1v.2l-.1.1v.2h-.1v.1h-.1v.2h-.1l-.1.1-.2.1v.1l-.1.1s-.1 0 0 .1h-.2v.2l-.1.1v.1h-.1v.1l-.1.1-.2.2v.1h-.1l-.1.1-.1.1-.1.1h-.1v.1h-.1l-.1.1-.1.1-.1.2h-.2v.1l-.1.1h-.1v.1l-.3.2v.1h-.2v.1h-.1l-.1.1h-.1v.1h-.1l-.2.1-.3.1h-.1l-.1.1h-.1l-.2.1h-1v-.1h-.2l-.3-.2h-.2l-.1-.1h-.2v-.1h-.1l-.1-.1-.3-.1v-.1h-.1v-.1h-.1v-.1h-.2v-.1h-.1v-.1l-.2-.1v-.1h-.1l-.1-.1-.1-.1-.1-.1-.1-.2h-.1v-.1h-.1v-.2h-.1l-.1-.2-.1-.1v-.1l-.2-.2v-.1l-.1-.2v-.2l-.1-.7v-.8l.1-.1v-.1l.1-.1.1-.1.1-.1V99h.1l.1-.1h.1v-.1h.3v-.1h.3v-.1h.4l.2-.1.2-.1h.2l.3-.2h.2l.2-.1h.3c.1 0 .2 0 .1-.1h.4v-.1c.1 0 .1 0 0 0l.1-.2v-.1h.1v-.1h.1v-.1h.1v-.2l.1-.1V97h.1v-.1l.1-.1v-.1c0-.1 0-.2.1-.1v-.1c0-.1 0-.2.1-.1v-.2h.1V96h.1l.1-.2h.1v-.1l.1-.1v-.1h.1v-.1l.2-.2.1-.2h.1v-.1h.1l.1-.1.1-.2.2-.2v-.1l.1-.1V94l.1-.1v-.1l.1-.1.1-.2.2-.1.2-.3V93l.2-.2v-.1l.3-.3h.1v-.1h.2v-.1s.1 0 0 0h.1l.1-.1.2-.1h.1v-.1h.2v-.1l.1-.2.1-.1.1-.1.1-.1v-.1h.2V91h.1l.1-.1h.2v-.1h.8Zm-31.3 3.6h-.6.6Zm.7 0v.1h.2v.1h.4v.1h.3v.1h.1c.1 0 .2 0 0 0h.2v.1h.1l.1.1h.1v.1h.1l.1.1h.2v.1h.1l.1.1h.1l.1.1.1.1.1.1h.1v.1h.1v.1h.1l.1.1.1.1h.1v.1h.1l.2.1v.1h.1v.1h.1v.1h.1v.1h.1v.1h.1l.1.2.1.1v.1l.1.1v.1h.1v.1l.1.1v.1l.1.4v.3l.1.3v.3h.1v.1h.1v.2h.1v.2l.1.1v.1h.1v.1h.1v.1l.1.1h.1s0 .1 0 0v.1h.1l.1.1v.1h.1v.1h.1v.1h.1v.1h.1v.1h.1l.1.1h.1l.1.1.1.1.1.1.1.1v.1l.1.1.1.1v.1h.1v.1l.1.1.1.1.1.1.1.1v.2h.1v.1l.1.1v.2l.1.7a3 3 0 0 1 0 .6v.2l-.1.1v.1h-.1v.1h-.1s0 .1 0 0l-.1.1-.1.1h-.1v.1h-.1v.1h-.2v.1h-.2l-.1.1h-.2l-.2.1h-.2a16.6 16.6 0 0 1-3.2 0l-.2-.1h-.2l-.1-.1h-.4l-.2-.1h-.1l-.1-.1h-.3v-.1h-.2v-.1c-.1 0-.1 0 0 0h-.1l-.1-.1h-.1v-.1h-.1l-.3-.1h-.2v-.1h-.1l-.1-.1h-.1v-.1l-.1-.1h-.1l-.1-.1h-.1s-.1 0 0-.1h-.2v-.1l-.1-.1-.1-.1-.1-.1-.1-.1v-.1h-.1l-.1-.1v-.1h-.1v-.1h-.1v-.1h-.1v-.1h-.1v-.1l-.2-.1v-.1l-.1-.2s-.1 0 0 0h-.1l-.1-.2h-.1v-.1l-.1-.1v-.1h-.1v-.2h-.1v-.1l-.1-.2h-.1v-.2h-.1v-.2h-.1v-.1l-.2-.3v-.2h-.1v-.1l-.1-.1v-.1l-.1-.1v-.1h-.1v-.1l-.1-.1v-.1h-.1l-.1-.1-.1-.1h-.1V99h-.1l-.1-.1-.1-.1h-.1l-.1-.1-.2-.3h-.1v-.1h-.1v-.1l-.1-.1V98h-.2v-.2l-.1-.6v-.9h.1l.1-.1V96l.1-.1v-.1h.1v-.1h.1v-.1h.1v-.1h.1v-.1h.1v-.1h.1v-.1h.1l.1-.1.1-.1h.1v-.1h.4l.1-.1h1.4-1l.4-.1h.7l.2-.1h2.1Zm-22.4 3h.1l.1.1.1.2h.1v.1h.1v.2l.1.1.1.1.2.2v.1l.1.1v.1h.1v.2s0 .1.1 0v.2h.1v.2h.1v.1l.1.1v.1l.1.2.2.2v.1s.1 0 0 .1h.1v.1l.1.1v.1l.1.2.1.2.1.2h.1v.2l.1.1v.1l.1.1v.1l.1.1.1.1v.1h.1v.4h.2v.1l.1.1.1.2.1.1v.1l.2.2v.1h.1v.1h.1v.1h.1v.1h.1v.1h.2l.1.1h.1l.1.1h.2l.1.1.1.1h.1v.1h.2v.1h.2l.2.1h.2v.1h.4l.2.1h.1l.1.1h.2l.1.1h.4v.1l.3.1h.2v.1h.1l.2.1h.1v.1h.2v.1h.2l.1.1.1.1h.1v.1h.1l.1.1.1.1h.1v.1l.1.1v.1l.1.1v.1h.1v.1l.1.1v.1h.1v.2h.1v.2l.1.1v.2l.1.1v.2a10.4 10.4 0 0 1 0 1.8v.2h-.1v.2h-.1v.2h-.1v.2h-.1v.1h-.1v.1l-.1.2h-.1v.1l-.2.1v.1l-.1.1-.1.1h-.1v.1h-.1l-.1.1h-.1l-.1.1-.1.1h-.1v.1h-.3l-.1.1h-.1l-.1.1h-.2a33.7 33.7 0 0 1-3.3-.1h-.1v-.1h-.1l-.1-.1h-.1l-.1-.1h-.2v-.1l-.2-.1-.1-.1h-.1l-.1-.1h-.1v-.1h-.1v-.1h-.2v-.1h-.1v-.1h-.1l-.1-.1v-.1h-.1l-.1-.1-.1-.1v-.1h-.1s-.1-.1 0-.1h-.1l-.1-.1h-.1v-.1h-.1v-.1h-.1v-.2h-.1l-.1-.1-.1-.1-.1-.1-.1-.1-.1-.1s0-.1 0 0l-.1-.1-.1-.1h-.1v-.1h-.1v-.1l-.1-.1-.1-.1v-.1h-.1v-.1h-.1v-.1h-.1v-.1l-.1-.1v-.1h-.1l-.1-.2c0-.1 0-.1 0 0v-.1l-.1-.1-.1-.1v-.2h-.1v-.1h-.1v-.1l-.1-.2-.1-.1-.1-.1v-.1h-.1v-.1h-.1v-.2h-.1v-.1h-.1v-.1h-.1s0-.1 0 0l-.1-.2-.1-.1v-.1h-.1v-.1h-.1v-.1h-.1v-.1l-.1-.1-.1-.1v-.1l-.2-.1v-.1h-.1v-.1l-.1-.1v-.1h-.1l-.1-.1v-.1h-.1v-.1l-.1-.1-.1-.1-.1-.1-.1-.1v-.1h-.1v-.1h-.1l-.1-.2h-.1v-.1h-.1v-.1h-.1l-.1-.1-.1-.1v-.1h-.2v-.1h-.1v-.1h-.1v-.1h-.1v-.2.1h-.1v-.1h-.1v-.2h-.1v-.1h-.1v-.1l-.1-.1-.1-.1v-.1c-.1 0-.1 0 0 0h-.1v-.2l-.2-.1s0-.1 0 0v-.4l-.1-.2c-.1 0-.1-.1 0-.1h-.1l-.1-.1h-.1v-.1l-.1-.1v-.1l.1-.1v-.1h.1l.1-.1v-.1h.1l.1-.3v-.1h.1l.3-.4h.2V99h.2v-.1h.1v-.1h.1l.1-.1h.1v-.1h.1l.1-.1.3-.2.1-.1h.1l.1-.1h.2l.2-.1h.2l.2-.1h.4l.2-.1h.1l.3-.1h.5l.1-.1h.3l.2-.1h.7Zm30.2 6.1v-.3.3Zm-2.2 1.8h-2.1 2.1Zm38.3 3.1h.5v.1h.2l.3.1h.2l.1.1h.1l.1.1a4.8 4.8 0 0 1 1.2.2h.2l.1.1h.1l.1.1h.1v.1h.2l.2.1h.1l.1.1h.2l.1.1h.2v.1h.2l.1.2.2.1v.2h.1v.1h.1v.1l.1.2v1.1l-.1.1-.2.1v.2h-.1l-.1.2h-.1v.1h-.1v.1h-.1l-.1.1v.1h-.1l-.1.1h-.2v.1a.5.5 0 0 1-.2.2v.1h-.1v.1l-.2.2h-.2v.1h-.1v.1h-.2v.1h-.1v.1h-.1l-.2.1-.1.1h-.1v.1h-.1l-.1.1h-.1l-.1.1-.1.1-.2.1v.1h-.1v.1l-.2.1v.1h-.1l-.1.1-.1.1-.2.1-.1.1-.1.1-.2.1v.1h-.1v.1h-.2v.1h-.1l-.2.2h-.1l-.1.1s-.1 0 0 .1h-.2l-.2.2h-.2v.1s-.1 0 0 0l-.2.1v.1h-.1v.1h-.1v.1h-.1v.2h-.1l-.1.1-.1.1-.2.1v.1h-.1v.1h-.2v.1h-.2v.1h-.1v.1h-.1l-.1.1h-.1v.1h-.1l-.1.1h-.1l-.2.1h-.1v.1h-.2v.1h-.1l-.2.1v.1h-.2v.1h-.2v.1h-.1v.1l-.2.2h-.4v.1h-.3l-.1.1-.2.1v.1h-.1v.1h-.1v.1h-.2l-.2.1h-1.1v-.1h-.2v-.1h-.1s-.1 0 0 0l-.1-.1h-.1l-.1-.1h-.1v-.1h-.1l-.1-.1h-.3v-.1h-.2l-.2-.1h-.1v-.1h-.2v-.1h-.1l-.3-.1-.1-.1h-.1l-.1-.1h-.2l-.2-.1h-.1l-.2-.1v-.1h-.1l-.1-.1h-.1v-.2h-.1l-.1-.2v-.2l-.1-.2v-1.2h.1v-.1l.1-.1.1-.1v-.1h.1v-.1h.1v-.1l.1-.1s0-.1 0 0v-.1h.1v-.1h.1l.1-.1.1-.1v-.1h.1v-.1h.1l.3-.2h.1v-.1h.1s.1-.1 0-.1h.1v-.1h.1v-.1h.2v-.1h.2v-.1h.1v-.1h.1v-.1h.2v-.1h.2v-.1h.4l.1-.1h.2v-.1l.2-.2.1-.1v-.1h.1v-.1h.1v-.1l.1-.1h.1v-.1h.1v-.1l.3-.3.2-.2.1-.2.2-.2.1-.1h.1v-.1h.1v-.1h.1l.1-.1h.1l.1-.1h.1l.2-.2h.1v-.1h.1l.1-.1h.1v-.1h.1l.2-.1v-.1l.1-.1h.1v-.1h.1v-.1h.1l.1-.1.1-.1h.1s0-.2.2-.2v-.1l.1-.1.1-.2h.1v-.1h.1v-.1h.1v-.1h.1v-.1h.1v-.1h.1v-.1h.1v-.1h.1l.1-.1h.1v-.1h.2v-.1h.2l.1-.1h1.7Zm-37.4 7.9h.1l.3.1h.1l.1.1h.1v.1h.1l.1.1h.2v.1h.1v.1h.2v.1h.2l.1.1h.1l.2.1h.1l.1.1h.2l.2.1h.1v.1h.4l.2.1h3.8l.2.1h.3l.2.1h.4l.2.1s.1 0 0 0h.4v.1h.1l.1.1c.1 0 .2 0 0 0h.1v.1h.2v.1l.2.1h.1l.1.2h.2v.1h.1v.1h.2v.1h.1v.1h.1l.1.1.1.1h.1v.1h.1v.1s.1 0 0 0h.1v.1h.1v.1l.1.1.1.1v.1h.1l.1.1v.1h.1s.1.1 0 .2h.1l.2.1v.2l.1.1v.1h.1v.1h.1v.2h.1v.1l.1.1.1.2h.2v.2l.2.1v.1h.1v.1h.1l.1.1v.1h.1l.1.1.2.1v.1h.1l.1.1h.1l.1.1v.1h.1l.1.1.1.1h.1v.1h.1v.1h.1v.1h.1v.2l.1.1v.2h.1l.1.2v.9l-.1.2v.1h-.1v.1l-.1.1h-.1v.1h-.1v.1h-.2v.1h-.2l-.2.1h-.4v.1l-.3.1h-.2l-.3.1h-.1l-.3.1h-.5s-.1 0 0 0l-.9.1h-2.1a5 5 0 0 1-1.5-.1h-.1l-.1-.1h-.3v-.1h-.2l-.1-.1h-.2v-.1h-.2l-.1-.1-.1-.1h-.1l-.2-.2-.2-.1-.1-.1-.1-.1h-.1v-.1h-.2v-.1h-.1v-.1h-.1l-.1-.1v-.1h-.1l-.1-.2h-.3v-.1h-.2v-.1h-.1v-.1h-.2v-.1h-.2l-.1-.1h-.1v-.1h-.1v-.1h-.1l-.1-.1-.1-.1-.2-.2h-.1v-.1l-.2-.2-.1-.1h-.1v-.1h-.1v-.1h-.2v-.1h-.1v-.1h-.2v-.1h-.1l-.1-.1-.2-.1v-.1h-.1v-.1l-.3-.2v-.1l-.2-.1-.1-.1-.1-.1-.1-.1s-.1 0 0 0v-.1h-.1v-.1l-.1-.1v-.1h-.1v-.1l-.1-.2-.1-.1v-.2h-.1v-.4h-.1v-.1l-.1-.1h-.1v-.1h-.1v-.1h-.1v-.1l-.1-.1-.1-.1v-.1l-.1-.1v-.3l-.1-.3v-.1h-.1v-.1l-.1-.1V117h.1v-.1l.1-.1v-.1h.2v-.1l.4-.2h.7ZM202 120h.3l.1.1h.1v.1h.1l.1.1.1.1h.1l.1.2.1.1s.1 0 0 0h.1v.1h.1l.1.1.1.1h.1v.1l.1.2h.1v.1l.2.1.1.2h.2c0 .2.2.2.2.2v.1h.1v.1l.1.1s0 .1 0 0v.1l.1.1.1.1v.1l.1.1v.1h.1l.1.2c.1 0 .1 0 0 0l.1.1.1.2.1.1v.1l.1.2.1.1h.1v.2l.1.1v.4h.1v.2h.1v1.1h-.1v.2h-.1v.1l-.2.2-.2.2h-.1v.1h-.1l-.1.1h-.3l-.2.1h-.2l-.2.1h-2.5a11 11 0 0 1-2.4 0h-.2l-.1-.1h-.1c0-.1 0-.1 0 0l-.1-.1v-.1h-.1l-.2-.1-.2-.2v-.1l-.2-.1v-.2h-.1v-.2l-.1-.1v-.1l-.1-.2v-.2l-.1-.3v-.3l-.1-.2-.1-.1-.2-.1v-.1h-.1v-.1l-.1-.1v-.1l-.1-.1v-1.1l.1-.1v-.2h.1l.1-.2.1-.1v-.1h.1v-.1l.1-.1h.1v-.1h.1l.3-.3.2-.2h.2v-.1h.1l.1-.1h.1l.1-.1.2-.1h.1l.1-.1h.2v-.1h.1l.1-.1h.1l.2-.1h.2l.2-.1h1.5Zm45.7.5Z" clip-rule="evenodd"/></svg>