<svg xmlns="http://www.w3.org/2000/svg" style="height:95.8%;width:95.8%" viewBox="85 30 130 45"><g fill-rule="evenodd"><path fill="#E4002B" d="m116.2 29.3-2 .5c-1.6.6-3 1.3-4.5 2.1-.3.2-1.4.3-6 .3h-5.8l2.4 18 2.4 18.2 1.7-.7 1.6-.8.8.3c.4.1.7.3.7.5s-.3 1.8-.8 3.5l-.9 4v.7H117c6.2 0 11.2-.1 11.2-.2l-.2-2c-.4-3.2-.4-3 .3-3 .7-.2.6-.4 1.1 2.8l.4 2.4h1c.8 0 .8 0 .7-.4l-.9-5 .7-.3h.6l.4 1.7.6 2.8.2 1.2h.8l.7-.1a88.3 88.3 0 0 0-1.2-5.7c0-.1 1.2-.4 1.3-.2l.6 2c.8 3.2 1 4 1.3 4l.2-.1.5-3.7.5-4c0-.2-.7-2-1.5-3.7a48 48 0 0 1-1.5-3.6c0-.3 0-.3 1.3-.3l2.1.2h.7l2-13.7 2-14.2v-.5h-16.4l-1-.6a14 14 0 0 0-9.3-2.4m-.1 1c-3 .8-5.4 2-3.8 2 .7 0 .6.3-.2.6-.8.4-2.5 1.9-2.3 2 0 .1.7 0 1.3-.2 2.6-.7 4.2-.6 6.2.3 1.1.6 1.2.8.7 1.3-.3.3-.4.3-1.3 0a5 5 0 0 0-3.3.5c-1.3.7-2.3 3-2.3 5.3 0 .5-.1 1-.3 1.2l-.4.9c0 .4 0 .4.7.3l2.7-.2c2 0 2.2 0 3 .4 1 .4 1 .4 2.1.2.7-.2 1.3-.4 1.6-.7.7-.6 3.5-1 6.2-1.1h1.4l-.1-.6a5 5 0 0 0-.7-1.5c-.4-.6-.6-1.3-.7-2l-.2-1.2c.1 0 .8 1 1.8 2.8.4.7.6 1 .7.8.4-.6-.2-3.8-1-5.6-.8-1.5-2.4-3.2-3.7-4a12.9 12.9 0 0 0-8.1-1.5m-4.6 5.8-.7.3-1.5 1.2c-.6.5-1.4 1-2.1 1.3-.8.3-1 .5-.4 1.2.3.5.4.9.5 2.6.1 2.3.4 3.3.8 3.3.5 0 .5-.3.6-2.4 0-2.2.2-2.8.9-3.6l.5-.8c0-.5 1.3-2.3 1.9-2.6 1-.7.8-1-.5-.5m14.7 7.7c0 .4.2.5.7.4.5-.2.4-.6-.2-.6-.3 0-.5 0-.5.2m-1.6.3c-.2 0 0 .2.4.4.8.4 1.1.2.6-.2-.5-.4-.7-.4-1-.2m2.7.3a1 1 0 0 0-.4 1c0 1.1-.4 2.2-.9 2.7-.7.7-1 .4-.4-.4s.6-1.3 0-1.3c-.3 0-.5 0-.7-.2-.3-.3-.4-.3-1.1 0H121v.4c0 .7-.7.6-1-.2-.5-.7-.8-.9-1.3-.6-.5.3-.5.5-.6 2.6 0 1.7 0 1.8.3 2.3.9 1 2.3 1 3.4 0 .3-.3.4-.5.3-.9-.1-.4 0-.5.3-.5.5 0 1.4.6 1.8 1.2l1 .8 1 .6c.2.6 0 2.2-.3 2.8a3 3 0 0 0-.3 1.2c0 1.1-.6 1.3-.8.2-.1-1-.6-1.2-1.8-.7-.7.3-1.3.4-2 .5-.4 0-1.1 0-1.4.2-.6.3-.8.8-.3.8.4 0 .7.4.7 1v.4l-.4-.4c-.5-.5-.6-.4-.4.4v1.6c-.3 1.6 0 2.3 1.9 3.6 1 .8 1.4 1 1.4.5l.5-1.4c.4-.8.5-1.2.4-1.6 0-.5 0-.5.2-.3.4.4 1 .1 2.2-1 1.8-1.8 2.3-3.2 2.3-6.1 0-2 .2-2.8.7-2.7.2.1.3 0 .3-.2l.5-1.8c.8-2.4.8-4 .1-4.5-.4-.3-1 .3-.7.7.3.5.3.8 0 1-.2.2-.3.1-.3-.2l-.2-1c-.2-.8-.5-1-1.1-.5m-4.8.5c-.3.4-.3.4.4.2.3-.1.6 0 1.2.2 1 .5 1.2.4.3-.2-.8-.6-1.5-.6-1.9-.2m70.5.7c-3.8.4-7 1.7-9.4 4-2.7 2.5-3.4 6-2 9 1 2 2.7 3.3 5.5 4 1 .3 1.7.4 4.4.4 3.1 0 5.5-.3 5.7-.6.2-.3.8-3 .8-3.4 0-.2 0-.3-.3-.2-2 .8-5.3 1-7 .3a5 5 0 0 1-2.8-2.5c-1.7-3.3.4-6.6 4.8-7.6 1.7-.4 3.6 0 5 1l1.1.6c.3 0 .4 0 .6-.6l.8-3.8-1.3-.3c-1.4-.3-4-.4-6-.3m-83.4.2c-.5.2-.3.5.3.5.2 0 .4-.1.4-.3 0-.3-.2-.4-.7-.2m2 0c-.4.2-.7.4-.7.8 0 .3.4.2 1-.4.8-.6.6-.8-.3-.4m1.5.4c-1 .8-.9 1 .2.4.4-.3 1-.5 1.3-.6.3 0 .5-.1.4-.2-.2-.4-1-.2-1.9.4m32.6-.5c-.8.1-1 .2-1 .8-.2.4 0 .5.3.7.6.2.7 1 .5 2.1-1.8 11.3-2 11.6-3.3 11.9-.7.1-.8.3-.9 1v.5h6l3.4-.2.2-.5c.2-.5.2-.6-.2-1-.3-.2-.4-.4-.4-1.6 0-1.4.3-3.2.6-3.7 0-.1.6.6 1.4 1.9.6 1.1 1.6 2.5 2.1 3 1.7 1.7 3 2.1 6.7 2.1 2.7 0 3 0 3-1 0-.4-.2-.5-.5-.5-1 0-2.2-1.3-4.7-5.3l-1.4-2.4 2.3-1.8 3.4-2.8a8 8 0 0 1 3-1.8c.4 0 .4 0 .6-.8l.1-.5h-9l-.3.4c-.2.7-.2.8.4.8 1 0 .7.5-1.5 2.3-1.3 1.1-5 3.7-5 3.7l.8-4c.3-1 1-1.9 1.4-2 .2-.1.3-.4.3-.6l.1-.6H152c-2.2-.2-5-.2-6.3 0m22.2.2-.1.6c0 .2 0 .3.3.4.3 0 .3.2.3 1 0 .6-.5 3.8-1.2 7.3l-1.2 6.8-.1.5h8l.2-.6c.1-.4 0-.5-.3-.8-.9-.5-1-2.3-.5-4.6l.2-.8 2.3.1a9 9 0 0 1 2.7.4l.6.2.6-2 .4-2h-5.9l.2-1.3c.3-2.1 0-1.9 3.4-1.9h3l.5.5c.3.3.6.5.8.5.3 0 .3 0 1-2.8l.4-1.7h-7.8a41 41 0 0 0-7.8.2m33.7.3c-1.5 1.4-.6 3.5 1.4 3.5.6 0 .8 0 1.3-.6.5-.5.6-.6.6-1.3 0-1-.3-1.5-1-1.9-.9-.4-1.7-.3-2.3.3m.8.1c-.2.1 0 .2.4.3.8.1 1.2.6.8 1-.2.3-.2.4 0 .7.3.4.3.4.5.1.4-.4.3-1.1-.1-1.6s-1.3-.7-1.6-.5m-94.1.6c-.1.3.1 1 .6 1.6.5.6.6.4.3-.8-.3-1-.7-1.3-.9-.8m93.2.4c-.2.4-.2.6 0 1 .3.5.3.5.3-.6v-1l-.3.6m-86-.3c-1.5 0-2 .2-2.4.7-.5.5-.6.5-1 .4-.4-.3-.8-.1-.8.3 0 .3.9 1.2 1.3 1.4.4 0 .4.5.2.7l-.6-.1c-.6-.2-.6 0 .1.9.9 1 1.3 1.1 2.4.4.5-.4 1-.9 1-1.1 0-.2.4-.8.7-1.2.5-.6 1-1.4 1-1.6h-.4c-.4.1-.8-.5-.5-.8.1-.1.1-.1 0-.1h-1m87 .4c0 .1 0 .2.2.2.4 0 .5-.3.2-.4-.4-.1-.4-.1-.4.2m0 1.1c0 .3-.1.5-.3.5-.2 0-.2.1.2.2h.9c.3 0 .4-.1.2-.2-.2 0-.4-.2-.5-.5-.3-.5-.5-.5-.5 0m-85.6 1.8v.7c.3.4.8.5.7 0l-.1-.6c0-.5-.5-.6-.6 0m5 1-1 .8c-.4.4-1 .5-2.4.2l-.8-.1-.9.9c-1.2 1.2-1 1.4 1.2.8 1.5-.4 3.7-.7 5.2-.7 1.8 0 2.6-.4 1.5-.8-.2-.1-.7-.5-1.1-1l-.8-.7-.9.5m-8.2 2.7-.4.6c-.5 1.5 1.8 4.7 3.7 5l.6-.1-.4-1.2c-.4-1-.7-1.3-.7-.6 0 .5-.4.4-.9-.1-.3-.4-.5-1-1.2-3.5-.1-.2-.4-.3-.7-.1m6 .7c-1 .2-1.1.4-.5.7.6.2 3.5-.5 3.5-.8l-3 .1M128 59c-.8 1.4-2 2.7-3.2 3.7l-.7.5h2.5l.3 1.3c0 1.3 0 1.4-1.2 1.4l-.7.2.8.7c.8.7 1.4 1.4 1.2 1.6l-1.1-.7c-1.2-.8-2.5-1.5-2.6-1.4l.4 1.3.6 1.8c0 .4.2.8.3.8.1.1 7.5-.7 8.1-.8.5-.2.5 0 0-2.6-1-6.2-1.7-8.8-2-6.6-.4 3-1.4 6.5-1.9 7-.3.2-.3.1 0-.7 1-2.9 1-8.3 0-8.6-.1 0-.5.5-.8 1.1m-14.4 2.9c-.4 1.5.9 4.9 2.7 7.2l.8 1.2c0 .3-1.9-1.4-2.6-2.5l-1.3-2c-1-1.9-1.4-1.3-1.3 2 0 2 .3 4 .6 4.2.2.1 1 0 3-.4 4.1-.7 3.8-.6 4.4-1.6.5-1.2 1.2-3.2 1-3.3-.1-.2-1.2.8-1.9 1.7l-.6.8s0-.5.3-1l.5-1h-1c-1.3.2-1.5 0-1.7-1.4 0-1.2 0-1.5 1-1.7.4 0 .7-.1.7-.2l-.8-.4c-1-.5-2.2-1.2-3.1-2l-.5-.3-.2.7m12.3 4.6c0 .3 0 .3.1 0 .1-.2.2-.2.2 0l.4.2c.2 0 .3 0 .3-.3 0-.2 0-.3-.1-.2-.1.2-.3.2-.4 0-.4-.2-.5-.1-.5.3m-4 3-.3.9c-.1.2 0 .3.3.2.5 0 .5-.1.5-.5-.1-.9-.3-1-.5-.5" vector-effect="non-scaling-stroke"/><path fill="#f9f0e8" d="M114.7 28.8c-1.4.4-3.4 1.2-4.6 2l-1 .5h-5.8c-4.2 0-5.8 0-6 .2l-.1.8c0 .9 5.6 43.8 5.8 44 .1.3 34.2.3 34.4 0l3.3-22.2c2.5-18.3 3-22.1 2.8-22.3a33 33 0 0 0-8.5-.3h-8.3l-.8-.6c-1.4-1-3-1.6-4.7-2-2.1-.5-4.4-.5-6.5 0m1.5.4-2 .5c-1.6.6-3 1.3-4.5 2.1-.3.2-1.4.3-6 .3h-5.8l2.4 18 2.4 18.2 1.7-.7 1.6-.8.8.3c.4.1.7.3.7.5s-.3 1.8-.8 3.5l-.9 4v.7H117c6.2 0 11.2-.1 11.2-.2l-.2-2c-.4-3.2-.4-3 .3-3 .7-.2.6-.4 1.1 2.8l.4 2.4h1c.8 0 .8 0 .7-.4l-.9-5 .7-.3h.6l.4 1.7.6 2.8.2 1.2h.8l.7-.1a88.3 88.3 0 0 0-1.2-5.7c0-.1 1.2-.4 1.3-.2l.6 2c.8 3.2 1 4 1.3 4l.2-.1.5-3.7.5-4c0-.2-.7-2-1.5-3.7a48 48 0 0 1-1.5-3.6c0-.3 0-.3 1.3-.3l2.1.2h.7l2-13.7 2-14.2v-.5h-16.4l-1-.6a14 14 0 0 0-9.3-2.4m-.1 1c-3 .8-5.4 2-3.8 2 .7 0 .6.3-.2.6-.8.4-2.5 1.9-2.3 2 0 .1.7 0 1.3-.2 2.6-.7 4.2-.6 6.2.3 1.1.6 1.2.8.7 1.3-.3.3-.4.3-1.3 0a5 5 0 0 0-3.3.5c-1.3.7-2.3 3-2.3 5.3 0 .5-.1 1-.3 1.2l-.4.9c0 .4 0 .4.7.3l2.7-.2c2 0 2.2 0 3 .4 1 .4 1 .4 2.1.2.7-.2 1.3-.4 1.6-.7.7-.6 3.5-1 6.2-1.1h1.4l-.1-.6a5 5 0 0 0-.7-1.5c-.4-.6-.6-1.3-.7-2l-.2-1.2c.1 0 .8 1 1.8 2.8.4.7.6 1 .7.8.4-.6-.2-3.8-1-5.6-.8-1.5-2.4-3.2-3.7-4a12.9 12.9 0 0 0-8.1-1.5m-4.6 5.8-.7.3-1.5 1.2c-.6.5-1.4 1-2.1 1.3-.8.3-1 .5-.4 1.2.3.5.4.9.5 2.6.1 2.3.4 3.3.8 3.3.5 0 .5-.3.6-2.4 0-2.2.2-2.8.9-3.6l.5-.8c0-.5 1.3-2.3 1.9-2.6 1-.7.8-1-.5-.5m14.7 7.7c0 .4.2.5.7.4.5-.2.4-.6-.2-.6-.3 0-.5 0-.5.2m-1.6.3c-.2 0 0 .2.4.4.8.4 1.1.2.6-.3-.5-.3-.7-.3-1-.1m2.7.3a1 1 0 0 0-.4 1c0 1.1-.4 2.2-.9 2.7-.7.7-1 .4-.4-.4s.6-1.3 0-1.3c-.3 0-.5 0-.7-.2-.3-.3-.4-.3-1.1 0H121v.4c0 .7-.7.6-1-.2-.5-.7-.8-.9-1.3-.6-.5.3-.5.4-.6 2.6 0 1.7 0 1.8.3 2.3.9 1 2.3 1 3.4 0 .3-.3.4-.5.3-.9-.1-.4 0-.5.3-.5.5 0 1.4.6 1.8 1.2l1 .8 1 .6c.2.6 0 2.2-.3 2.8a3 3 0 0 0-.3 1.2c0 1.1-.6 1.3-.8.2-.1-1-.6-1.2-1.8-.7-.7.3-1.3.4-2 .5-.4 0-1.1 0-1.4.2-.6.3-.8.8-.3.8.4 0 .7.4.7 1v.4l-.4-.4c-.5-.5-.6-.4-.4.4v1.6c-.3 1.6 0 2.3 1.9 3.6 1 .8 1.4 1 1.4.5l.5-1.4c.4-.8.5-1.2.4-1.6 0-.5 0-.5.2-.3.4.4 1 .1 2.2-1 1.8-1.8 2.3-3.2 2.3-6.1 0-2 .2-2.8.7-2.7.2.1.3 0 .3-.2l.5-1.9c.8-2.3.8-4 .1-4.4-.4-.3-1 .3-.7.7.3.4.3.8 0 1-.2.2-.3.1-.3-.2l-.2-1c-.2-.8-.5-1-1.1-.5m-4.8.5c-.3.4-.3.4.4.2.3-.1.6 0 1.2.2 1 .5 1.2.4.3-.2-.8-.6-1.5-.6-1.9-.2m-13 .9c-.5.2-.3.5.2.5.3 0 .5-.1.5-.3 0-.3-.3-.4-.7-.2m2 0c-.4.2-.7.4-.7.8 0 .3.4.1 1-.4.8-.6.6-.8-.3-.4m1.5.4c-1 .8-.9 1 .2.4.4-.3 1-.5 1.3-.6.3 0 .5-.2.4-.2-.2-.4-1-.2-1.9.4m-4.8.8c-.1.3.1 1 .6 1.6.5.6.6.4.3-.8-.3-1-.7-1.3-.9-.8m7.2 0c-1.5.2-2 .3-2.4.8-.4.5-.6.5-1 .4-.4-.3-.8-.1-.8.3 0 .3.9 1.2 1.3 1.4.4 0 .4.5.2.7l-.6-.1c-.6-.2-.5 0 .1.8.9 1.1 1.3 1.2 2.4.4.5-.3 1-.8 1-1 0-.2.4-.8.7-1.2.5-.6 1-1.4 1-1.6h-.4c-.4.1-.8-.5-.5-.8.2-.1.1-.1 0-.1h-1m1.4 3.3v.7c.3.4.8.5.7 0l-.1-.6c0-.5-.5-.6-.6 0m5 1-1 .8c-.4.4-1 .5-2.5.2l-.7-.1-.9.9c-1.2 1.2-1 1.4 1.2.8 1.5-.4 3.7-.7 5.2-.7 1.8 0 2.6-.4 1.5-.8-.2-.1-.7-.5-1.1-1l-.8-.7-.9.5m-8.2 2.7-.4.6c-.5 1.5 1.8 4.7 3.7 5 .3 0 .6 0 .6-.2l-.4-1.2c-.4-1-.7-1.2-.7-.5 0 .5-.5.4-.9-.1-.3-.4-.5-1-1.2-3.6-.1-.2-.4-.2-.7 0m6 .7c-1 .2-1.1.4-.5.6.5.3 3.5-.4 3.5-.7l-3 .1M128 59c-.8 1.4-2 2.7-3.2 3.7l-.7.5h2.5l.3 1.3c0 1.3 0 1.4-1.2 1.4l-.7.2.8.7c.8.7 1.4 1.4 1.2 1.6l-1.1-.7c-1.2-.8-2.5-1.5-2.6-1.4l.4 1.3.6 1.8c0 .4.2.8.3.8.1.1 7.5-.7 8.1-.8.5-.2.5 0 0-2.6-1-6.2-1.7-8.8-2-6.6-.4 3-1.4 6.5-1.9 7-.3.2-.3.1 0-.7 1-2.9 1-8.3 0-8.6-.1 0-.5.5-.8 1.1m-14.4 2.9c-.4 1.5.9 4.9 2.7 7.2l.8 1.2c0 .3-1.9-1.4-2.6-2.5l-1.3-2c-1-1.9-1.4-1.3-1.3 2 0 2 .3 4 .6 4.2.2.1 1 0 3-.4 4.1-.7 3.8-.6 4.4-1.6.5-1.2 1.2-3.2 1-3.3-.1-.2-1.2.8-1.9 1.7l-.6.8s0-.5.3-1l.5-1h-1c-1.3.2-1.5 0-1.7-1.4 0-1.2 0-1.5 1-1.7.4 0 .7-.1.7-.2l-.8-.4c-1-.5-2.2-1.2-3.1-2l-.5-.3-.2.7m12.3 4.6c0 .3 0 .3.1 0 .1-.2.2-.2.2 0l.4.2c.2 0 .3 0 .3-.3 0-.2 0-.3-.1-.2-.1.2-.3.2-.4 0-.4-.2-.5-.1-.5.3m-4 3-.3.9c-.1.2 0 .3.3.2.5 0 .5-.1.5-.5-.1-.9-.3-1-.5-.5" vector-effect="non-scaling-stroke"/><path fill="#fff" d="M193.6 45.5c-4 .3-7.2 1.5-9.7 3.8a9 9 0 0 0-2.7 4.8v2.4a8 8 0 0 0 1 2.6 8 8 0 0 0 4.3 3.2 26.3 26.3 0 0 0 10.7.1c.3-.1.3-.1.6-1.4.3-1.2.5-2.1.4-2.2 0-.2 0-.1-.6 0a12 12 0 0 1-3.8.6c-1.1 0-2.3-.2-3.4-.7a4.8 4.8 0 0 1-2.7-3.2c-.7-2.3.4-4.5 3-5.8 1-.6 2.3-.9 3.5-1A6 6 0 0 1 198 50l1.3.6.2-.2c.2-.4 1-4.2.9-4.3l-1.5-.3c-1.2-.2-4-.3-5.3-.2m-47.5 0c-1.2.2-1.3.2-1.5.8 0 .4 0 .5.4.7l.4.5c.3.6.3 1-.8 6.9-.7 4.2-1 5.6-1.5 6.2-.2.2-.5.4-1 .5-.7.1-.8.3-.8 1.1v.5h2l7.4-.2.2-.5c.2-.6.2-.7-.2-1l-.3-.4a13.6 13.6 0 0 1 .5-5c.1 0 .6.6 1.4 2 1.6 2.5 2.7 3.7 4 4.3 1 .6 2.6.8 5.4.8 2 0 2.3-.2 2.3-1 0-.4 0-.5-.4-.5-.4-.1-.7-.2-1-.6a25.8 25.8 0 0 1-5-7.2L159 52a246 246 0 0 0 4.3-3.5c1-.8 2-1.4 3.2-1.7l.3-1.2h-9.1l-.1.4c-.2.4-.2.6 0 .7h.4c.5 0 .6.2.4.6a34.3 34.3 0 0 1-7 5.4c-.1-.1.6-3.4 1-4.3.3-.7.8-1.4 1.1-1.6.2 0 .3-.2.3-.3l.2-.9c-.1 0-6.6-.2-8-.1m22.7.1h-.8l-.1.5v.5l.2.2c.3.1.3.2.3.8 0 1-.4 3.3-1.7 10.5a135 135 0 0 0-.7 4.3h8l.2-.9c0-.1-.1-.3-.4-.5-.3-.2-.5-.5-.6-.8-.3-1-.2-2.2.2-4l.1-.6h.2l1.6.1c2.2.1 2.8.2 3.4.5h.5l1-3.8-.5-.1a23.3 23.3 0 0 0-5.5 0l.2-1.3c.3-1.3.3-1.6.6-1.7.3-.2.9-.2 3.4-.2h2.5l.4.4c.4.4.7.6 1 .6l.3-.6 1-3.8-7-.1h-7.8m33.6 0c-.6.3-1.1.9-1.3 1.5v1c.2 1 1 1.5 2 1.5.7 0 .9-.1 1.4-.7.4-.4.5-.6.5-1.3l-.1-.8c-.2-.5-.5-.8-1-1-.2-.2-.5-.2-.8-.2h-.6m0 .6v.2h.4c.9.2 1.2.6.9 1.1-.2.3-.2.4 0 .7.3.4.3.4.6 0 .3-.7 0-1.6-.8-2h-1m-.8.6c-.3.6-.3 1 0 1.4 0 .3.1.3.2.1V47l-.1-.2-.1.2m.9.2.1.4c.2 0 .5 0 .4-.3l-.5-.1m0 1v.2c0 .4-.2.5-.3.6h-.2l.2.2h1.2c.1-.1.2-.1 0-.2l-.5-.6c-.2-.2-.3-.3-.4-.2" vector-effect="non-scaling-stroke"/></g></svg>