<svg xmlns="http://www.w3.org/2000/svg" fill="none" viewBox="0 0 1000 266">
                <path fill="#ffffff" fill-rule="evenodd" d="M892.5 13c-7.2.9-13.3 3.2-20 7.6-7.1 4.6-9.2 7.2-11.6 14-4.6 13.2-.7 27.8 9.3 34.6 9.7 6.6 14.4 8.4 37 14.2C926 88.3 933 93.5 933 102.8c0 13.3-10.4 19.7-32 19.7-10.2 0-12.2-.3-17.8-2.7-3.5-1.5-9-4.6-12.3-6.8-7.6-5.2-10.4-5.1-13.6.5-3 5.3-2.9 7.6.5 10.7a67.8 67.8 0 0 0 19 11.2c6.4 2.1 20.6 4.6 26.7 4.6 15 0 32-6.4 39.8-15a27 27 0 0 0 8.5-20c1-20-10.5-30.5-42.8-39.1-16-4.3-15.7-4.2-21.9-7.2-4.1-2-8.7-7.3-9.2-10.7-.5-3.3 1.5-9 4-11.6 3.9-3.9 9.1-6.2 16.8-7.5 9-1.4 18.9.6 29.8 6 4.4 2.3 8.6 4.1 9.2 4.1 1.5 0 3.6-3 5.7-8.2 1.4-3.3 1.4-3.8-.3-6A54.8 54.8 0 0 0 923 14.7c-6.7-2-22.3-2.8-30.5-1.8m-643.8.8a6.8 6.8 0 0 0-4.1 2.6A5897 5897 0 0 0 194.4 121c-7.2 15.3-7.2 16.6 0 17.6 9 1.4 10 .7 16-12C216 115 216 115 227.7 115c6.5 0 22.6-.3 35.8-.7 19.9-.5 24.2-.3 25.2.8.6.8 3.5 6 6.3 11.7 5.5 11 6.8 12.2 13.9 12.2 9.3 0 9.1-3.6-1-24-3.7-7.7-11.2-23.3-16.5-34.7-26.4-57-30.4-65-33.2-66.2-2.3-1.1-4.2-1.2-9.5-.4m96.1 0c-3.5 1-3 4.1 1.4 10A2529.9 2529.9 0 0 0 384 72c6 7.5 6 7.5 6 35.3 0 26.9 0 27.8 2.1 29.8 1.8 1.8 3 2 7.5 1.7 3-.3 6-1 6.7-1.7.9-.9 1.2-8.6 1.2-29.4 0-28.2 0-28.2 11-42l18-23.2c3.9-5.2 9.8-12.8 13.3-16.9 6.6-8 7.3-10 4.3-11.6a32.7 32.7 0 0 0-16.5.1c-3 1.4-12 12.7-28.4 35.1-2.1 3-5 7-6.6 9-1.5 2.1-3.1 3.8-3.6 3.8s-3.4-3.3-6.3-7.3a940.6 940.6 0 0 0-27.8-35.6c-4.5-5.3-4.5-5.3-11.5-5.7-3.8-.1-7.7 0-8.6.2m203.2 0c-28 5.4-37.3 9.4-41.6 17.6-2 3.8-1.7 10.2.6 14.8 4 7.8 13.9 12.3 38 17.2 10 2 46 1.6 58-.6C622.4 59 633.4 54 638.8 46c2-3 2.3-4.4 1.9-8.7-.3-2.9-1.4-6.3-2.4-7.7A40 40 0 0 0 621 19.1c-14.5-4.7-19.4-5.3-45.4-5.6a439 439 0 0 0-27.5.2m152 1c-2 1.4-2 3.2-2 61.3 0 60 0 60 2.5 61.6 2.9 1.9 12.7 1.6 14.8-.5.8-.8 1.4-6 1.7-14.9.5-13.7.5-13.7 20.5-14.3 11-.3 20.5-.3 21.1 0 .6.3 6.2 6.8 12.3 14.3 6.1 7.5 12.1 14.4 13.3 15.2 1.5 1 4.5 1.6 8.4 1.6 7.7 0 9.4-.6 9.4-3.5 0-2.5-1.4-4.5-11.9-16.5-4-4.7-8.5-10.3-10-12.4-2.6-4-2.6-4 .4-6a66 66 0 0 0 18.8-20.5c3.1-6.4 3.2-7 3.2-19.6 0-12.7 0-13.1-3.4-20-7.5-15.4-21.8-24.4-41.4-26-4-.3-18.1-.7-31.5-.9-19.2-.2-24.7 0-26.3 1.2m-651.3.8c-1.4 1.4-1.6 7.8-1.8 54.2-.2 72.4-.5 67.6 3.9 68.6 3.8 1 85.3.5 88-.5 2-.8 2.3-1.5 2.3-7.2 0-3.6-.5-6.8-1.2-7.5-.9-.9-10.4-1.2-36.4-1.2-19.4 0-36-.3-36.8-.6-1.4-.6-1.6-6-1.6-52a581 581 0 0 0-1-53.5c-.9-1.6-2.2-1.9-7.5-1.9-4.4 0-6.8.5-8 1.6m505 13.6c-16.7 2.1-30.5 6.3-30.5 9.3 0 1.9 3.8 3.6 14.6 6.6 6.7 1.9 11.3 2.3 30.4 2.7 27.6.5 40.2-1.1 52.2-7 4-1.9 3.5-3.6-1.5-5.7-13.7-5.8-44.4-8.6-65.2-6m164.7 1.6c-1 .7-1.2 7.5-1 30.4.3 29.4.3 29.4 20.3 29.7 12 .2 22-.1 25-.8A30 30 0 0 0 784 67c3-14.3-5.5-30-19-34.5-5.1-1.8-44.6-3.3-46.8-1.8M251 40a380.4 380.4 0 0 1-11.2 25C228.5 88 225 96 225 97.6c0 1.1 3.2 1.4 17.3 1.5a2056.7 2056.7 0 0 0 31 0c5.2 0 6.7-.4 6.7-1.6 0-.8-4.6-11.3-10.1-23.2l-13.5-29c-1.8-4-3.5-7.3-3.8-7.3-.3 0-1 1-1.6 2m259.4 28a9.5 9.5 0 0 0-5.4 8c0 4.4 5.1 11.2 10.6 14.2 6 3.2 15.6 6.3 24.9 7.8l11.2 2c5.8 1.4 37.4 1.2 44.7 0 22.5-4 30.3-6.6 38.3-12.7 3.7-2.9 6.8-10 5.9-13.8-1.5-6-8.8-8.7-12.2-4.6-8.5 10-13.2 12.1-33.4 14.6a167.8 167.8 0 0 1-62.5-3.6c-5.8-1.7-7.8-3-11.5-6.9-4.9-5.2-7.3-6.3-10.6-5m-2.3 41.1c-2 1.9-2.3 3-1.9 7 1.5 15 26 23.8 65.8 23.9 26.9 0 48-4.2 60.4-12 5.3-3.4 9.2-10.3 8-14.3-1.2-4-4.5-6.7-8.1-6.7-2.8 0-3.8.7-6.5 4.4-4.4 6.4-12.5 9.5-32.6 12.5-8.8 1.3-31.9 1.4-39.3.2l-12.4-2.2c-11.2-1.9-16.4-4.3-21.6-9.9-5.2-5.6-8.1-6.3-11.8-2.9m-305.1 80c-1.7 3-.8 54.2 1 56.3 1 1.3 3.7 1.6 14.7 1.6 14.8 0 21-1.1 26.5-4.8 4.6-3 6.6-6 7.4-11 1-6.1-.2-10.4-4.2-15-3.1-3.7-3.4-4.4-2.3-6.4a27.5 27.5 0 0 0 0-15.7c-.7-1.1-3.4-3.2-6.1-4.6-4.6-2.3-5.9-2.5-20.4-2.5-14.7 0-15.6.1-16.6 2m86.6 19.4a657.4 657.4 0 0 0-13.1 27.8c-3.3 6.9-3.3 9.6.2 10.4 3.4.9 5.3-.4 8-5.2 1.2-2.1 3.2-4.1 4.5-4.4a269 269 0 0 1 28.5 0c1.4 0 3.1 1.6 5.2 5 2.8 4.6 3.5 5 6.3 4.8 5-.5 5.5-2.6 2.3-8.9-1.5-3-5.8-12.2-9.5-20.4-3.7-8.3-8.5-18.4-10.6-22.5-3.7-7.1-4.1-7.5-7.6-7.8-3.7-.3-3.7-.3-14.2 21.2m68-19.8c-.3.9-.6 13.6-.6 28.4 0 23 .2 27 1.6 28.4 3.7 3.8 8.4.1 8.4-6.5 0-3.8 3.2-9.1 8.4-13.9 3.2-2.9 2.4-3.4 13.6 10.5 8.5 10.7 9.5 11.5 13.4 11.5 6 0 6-3.9 0-10.5-2-2.2-4.8-5.6-6.2-7.5-1.5-2-4.3-5.4-6.4-7.7-2.1-2.4-3.8-5-3.8-6.1 0-1 4.3-6.7 9.6-12.6 10.8-12.1 11.7-14.9 5.1-15.4-4.3-.4-3-1.4-21.2 18.6-6 6.7-11.3 12.2-11.8 12.2-.4 0-.7-5.8-.7-13 0-15.7-.7-18-5.4-18-2.2 0-3.6.6-4 1.6m74.6-.4c-1.7 1.7-1.7 55.9 0 57.6a218 218 0 0 0 44.9.2c2.3-1.3 2.5-5.3.3-7.4-1.3-1.3-4.4-1.6-18.4-1.6-19.1 0-18 .6-18-9.7 0-8.7-.9-8.3 17-8.3 16 0 16 0 16.6-2.5 1.2-4.9-.4-5.4-17.5-5.7-15.6-.3-15.6-.3-15.6-6.8s0-6.5 17.5-7c17.4-.5 17.4-.5 18.1-4 .5-2 .3-4-.3-4.7-1.5-1.8-42.8-1.9-44.6-.1m79.6.9c-7.7 3.9-11.7 14.4-7.8 20.6 3.3 5.4 5.7 6.7 20.5 11.3 10 3 11.7 4.3 11.3 8.7-.5 5.7-4.2 7.8-13.6 7.8-6.6 0-8.4-.5-12.5-3-4.6-2.6-4.9-2.7-6.7-1-2.6 2.4-2.5 4.7.3 7.3 8.9 8.3 30.5 8.3 39.4 0 3.2-3 4.8-10.7 3.3-15.5-2.2-6.7-7-10.4-17-13.2-9.7-2.7-11.6-3.4-13.8-5.4-3.7-3.4-3-6.5 2.4-8.9 5-2.1 9.8-2 17.4.7 3.2 1.1 4 1.1 5.9-.1 4.1-3 1.8-6.8-6.2-10.2a43.4 43.4 0 0 0-22.9.9m61.2-.2c-.6 1.2-1 12-1 27.8 0 21.8.2 26.2 1.6 28 1.7 2.5 5.6 3 7.2 1 .7-.8 1.3-6.7 1.4-13.8.3-12.4.3-12.4 14.2-12.7 9.2-.2 14.3.1 15.2.9 1 .8 1.4 4.5 1.6 13.1.2 9.8.6 12.3 1.9 13 2.4 1.6 6.6.2 7.3-2.4 1-4 .7-49-.5-53-.8-3.3-1.4-3.8-3.8-3.8-1.6 0-3.3.6-4 1.3-.5.7-1.2 6-1.3 11.8-.3 10.4-.3 10.4-13.3 10.7-18.8.4-17.5 1.2-17.5-11.1 0-6.7-.4-10.7-1.2-11.5-1.9-1.9-6.6-1.5-7.8.7m91.4.5a29.5 29.5 0 0 0-15.9 33.1c1.9 8.7 2.8 10.5 7.6 15.4 6.7 6.7 12.7 9 22.7 9 9.3.1 13-1 20.1-6.3a25 25 0 0 0 7.6-9.3c6.4-12.6 2.6-31-7.9-38.4-6.5-4.6-11-5.9-20.6-5.9a27 27 0 0 0-13.6 2.4m71.2-.8c-.3.9-.6 13.8-.6 28.8 0 19.8.3 27.5 1.2 28.4 1.8 1.8 7.5 1.5 8.2-.4.3-.9.6-3.1.6-5 0-6.8 1-7.4 11.8-7.4 10.6 0 16.8-2 22.5-7.4a22.7 22.7 0 0 0 4-26.5c-2.8-5.8-4.7-7.3-12.4-10.2-7.3-2.6-34.3-2.9-35.3-.3m-62.4 8.3a19.6 19.6 0 0 0-14.2 20c0 13.5 10.8 22.6 24.3 20.4 4.5-.7 11.7-6.5 14.3-11.4 2-3.8 1.8-14.3-.2-18.5-2-4.2-8.5-10-12.2-10.8l-4.7-1c-1.1-.4-4.4.2-7.3 1.3M213 203c0 6 0 6 9.3 6 5-.2 10-.6 11-1.1 4.2-2.3 4.3-7.9 0-9.8-1.3-.6-6.4-1.1-11.3-1.1-9 0-9 0-9 6m532.6-3.8c-.3 1.3-.6 6.7-.6 12 0 12.8.3 13 12.2 12.4 5.9-.3 9.8-1 11.4-2a15 15 0 0 0 4.9-18.6c-2.5-4.7-6.1-6-17.3-6-9.5 0-10 .1-10.6 2.3m-443 5.4a308.5 308.5 0 0 0-10.6 21.4c0 .5 5.2.9 11.5.9s11.5-.3 11.5-.8c0-1.4-10.4-22.2-11.1-22.2-.4 0-1 .3-1.2.8m-89.5 15c-.4 1-.7 2.3-.6 3l.3 7.7c.1 6.5.1 6.5 11.4 6.5 11 0 11.3 0 14.5-3 2.4-2.1 3.2-3.7 3.2-6.2 0-7.4-4.8-9.8-19.2-9.8-7.3 0-8.9.3-9.6 1.8"></path>
              </svg>