<svg xmlns="http://www.w3.org/2000/svg" style="height:100%;width:100%" viewBox="50 35 400 400"><path fill="#fff" fill-rule="evenodd" d="M239 48.5c-.8.2-6.2.9-12 1.5A184.2 184.2 0 0 0 71 188c-3.6 14.7-5 27.2-5 45 0 31.5 5 53.8 18.5 81.5 25.2 52 72 88 130.5 100a129 129 0 0 0 35 2.8c19.2 0 22.8-.3 34.1-2.7A185.5 185.5 0 0 0 402.8 336a186 186 0 0 0 19.6-167.8A185.3 185.3 0 0 0 239 48.5m2.3 16.4c-13.1 6.4-19.5 14-19.7 23.8 0 5.5 2.1 9.3 5.4 9.3 3 0 3.9-2 3.3-7.6-.4-3.3 0-6.5.7-8.4 1.4-3.5 7.4-8.6 11.2-9.5 2.2-.6 2.8-.1 5 4.2 2.8 5.7 6.7 8.2 17 10.7 9.6 2.2 11.7 4 13.2 10.6 1.4 6 3.5 8.2 6 6 3.9-3.1.2-14.3-6-18.4a53.8 53.8 0 0 0-12.2-4.6c-5.7-1.6-8.6-2.8-9.3-4.2-.6-1-1-5-.7-8.6l.3-6.7-3-.3c-2-.2-6 1.2-11.2 3.7m38.1 10c4.4 2.2 9.3 5.4 11 7 1.7 1.6 6 4 9.6 5.1a155.2 155.2 0 0 1 100.7 118.5c2.4 12.6 2.4 41.3-.1 54.5a156.6 156.6 0 0 1-69.8 102.8c-5.7 3.5-7.8 5.4-8.2 7.3l-1.2 5.3c-1 4 1 3.4 12.1-3.5 31-19 53.5-45.7 67-79.2 21.7-54.5 12-118-25.3-163.7A182.5 182.5 0 0 0 322 86.5c-13.5-6.8-32-12.7-46.5-15-3.6-.5-3.2-.2 4 3.4m-81.6 2.5A164 164 0 0 0 88 207c-1.7 9.8-1.7 41.2 0 51 8.9 51 38.7 93 83.4 118 3.2 1.7 6.1 3 6.4 2.6.3-.2 0-2.7-.8-5.5-1.2-4.6-1.8-5.3-7.3-8.7a161.5 161.5 0 0 1-50.2-49.1 155 155 0 0 1-6.4-154.8 163.7 163.7 0 0 1 44-51.7c13-9.5 30-18.2 45.8-23.3 3.5-1.1 5.2-2.2 5.2-3.3 0-1 .7-3 1.5-4.6l1.5-3.2c0-1-4.3 0-13 3m14.4 26c-8.4 3-13.5 8.7-14.2 15.6-.5 5.7 1 9 4.3 9 3.8 0 5.3-2.3 4.8-7.3-.4-3.6 0-4.8 2.1-7.4 3.3-4 11.1-5.8 20-4.9 21.5 2.4 56 8 60 9.7 3 1.4 4.1 4.5 3.3 9.4-1 6.7 4.4 7 6.4.4 1-3 1-4.6-.2-7.5-2.5-6.5-7-8.5-27.9-12.5-30.6-5.7-51.3-7.3-58.6-4.6m-8.2 29.8c-6 1.2-13.9 5.7-17.2 10-3.9 4.8-5.6 11.6-4 16.2 1.3 4.2 3.5 5.3 6.5 3.3 1.8-1.2 2.3-2.7 2.7-8 1-11.6 4.8-14.2 23.2-15.7 8.6-.8 16-.7 24.7 0l33.4 2.7c30.8 2.3 32.5 3 32.8 12.9.2 4.8.5 6 2 6.3 2 .4 4.7-5 4.7-9.5 0-4-3.2-8.7-7.5-10.7-4.5-2.2-10.3-3-53-7.2a275.3 275.3 0 0 0-48.3-.3m9.8 28.3c-5.4 1.3-5.1 1.3 9.2 1.4 8.1.1 19 .9 24 1.7 12 2 27 2 35.5 0 3.7-1 7-1.8 7.2-2 .2-.3-4.8-.2-11 .1-6.5.4-15.7 0-21.4-.6-15.4-1.8-37-2.1-43.5-.6m99 1.6c-2.4 1.5-14 5.8-19.3 7-4.8 1.3-5.3 2-4.1 6.6.5 2 1 2 4.5 1.1 2.2-.5 4.2-.7 4.6-.4.3.4 1.8 6.4 3.3 13.4 1.5 7 3.3 14.7 4 17l1 4.3 4.3-.6c2.3-.4 4.4-.8 4.6-1 .1-.1-.4-2.4-1.2-5a192 192 0 0 1-6.4-30.8c.3-.8 2.2-1.7 4.1-2 3.4-.6 3.6-1 3.6-4.4 0-4.7-1-6.4-3-5.2m-122.6 4.6c-3.5 1.7-5.2 4.7-6 10.9-.8 5.7 1.5 10 7.7 13.7 3.5 2.2 4.9 3.7 4.9 5.3 0 3.8-2.4 4.8-9.5 4.2l-6.5-.6-1.6 5.5c-.9 3-1.4 5.7-1.2 6 .2.2 4 .4 8.4.5 9.6.2 13.2-1.3 17-7 1.9-3 2.6-5.3 2.7-9.5.1-6.4-1.6-8.9-8.9-12.6-4.3-2.3-5.3-4.1-3.5-6.9.7-1 2.1-1.2 5.5-.8l4.6.7v-4.6c0-4.8-.1-5-6.5-5.8-2.6-.3-5.1 0-7.1 1m32.6 2.6c-6.5 3.3-9.2 8.7-9.3 18.3 0 8.9 2.6 15 8.6 19.9 3.5 2.8 4.6 3.1 10.5 3 7.1 0 10.4-1.3 15-6.4 5.9-6.2 8.2-18.2 5-24.5a24.2 24.2 0 0 0-19.7-12.2c-4.5-.4-6.5 0-10.1 1.9m41.6 2.5-4.8.4.6 7.7c.3 4.2.7 11.8.7 16.7.1 5 .4 10.7.7 12.8.5 3.7.5 3.7 5 3.7h4.4l-.3-9.3-.4-9.2 5.3-.3c5.5-.3 5.7-.5 4.6-6-.6-3-.9-3.2-5.4-3.2-4.4 0-4.8-.2-5.3-2.8-.3-1.5-.4-2.8-.3-3a80 80 0 0 1 7.6-.5l7.5-.4.3-3.6.3-3.7-7.8.2c-4.3 0-10 .3-12.7.5m-36.4 4.6c-7 4-7.7 15.6-1 21.1 5.9 5 14.2 2.3 17.3-5.8 1.6-4.1 1.6-5 .3-8.3-2.5-6.8-10.8-10.2-16.6-7m85.8 40.5c-7.3 1.1-16.8 1.4-41.5 1.2-66.3-.6-73.1-.5-84 1.8-5.5 1.2-12 2.8-14.5 3.6l-4.5 1.6 4.5-.5c23.5-2.3 35.5-2.7 52-1.5 9.6.7 27 1.5 38.6 1.7 18.3.4 22.7.2 33.2-1.6 11.2-2 28.2-6.6 28.2-7.6 0-.6-.3-.6-12 1.3m-113 11.6c-.3.2-.5 10.7-.4 23.3 0 18.2.4 23.5 1.6 26.3 1.8 4.1 5.3 7.5 8.7 8.3 3.1.8 8.4-1.5 10.4-4.4l1.6-2.3 2 2.6c4.6 5.7 13.2 4 17.6-3.6 3.5-6 4.4-11.3 4.6-28.1.3-23.4.7-21.5-4.5-21.5h-4.4l-.4 18.8a166 166 0 0 1-1.2 20.4c-1 2.3-4.4 3.2-6.1 1.8-1.2-1-1.5-4.8-1.5-20a198 198 0 0 0-.6-20.4c-.4-1.1-2-1.6-5-1.6H219v18.4c0 10.3-.5 19.6-1 21.4-1.5 4-4.6 4.8-6.7 1.6-1.3-2-1.5-4.6-1-15.2.3-7 .3-15.8 0-19.5l-.6-6.7h-4.2c-2.3 0-4.4.2-4.6.4m-23.4 2c-5.7 2.5-8.5 8.1-8.5 17 .1 7.7 2.7 11.7 9.2 14.1 5 2 5.3 2.3 5.6 5.7.3 3.5.1 3.7-3.5 4.7-2 .6-5.8 1-8.3 1l-4.6.1-1 5.8a22 22 0 0 0-.7 6.2c.2.2 4.4.5 9.3.5 8.5 0 9-.1 12-3 4.1-4 5.6-6.8 6.9-13.7 1.1-6.1 0-12-2.7-15-.8-1-3.4-2.3-5.6-3-5.3-1.5-6.6-2.5-6.6-5.3 0-3 1.6-4.1 7.3-5 4.5-.6 4.7-.8 4.7-3.8 0-6.7-.8-7.7-5.9-7.7-2.5 0-6 .7-7.6 1.4m76.5 3.8c0 1.8-.7 14-1.6 27-1 13-1.4 24.4-1 25.3.4 1 2 1.5 5.5 1.5h5l.5-7.3 2-27.6a376 376 0 0 0 1.4-20.6l-6-.9-5.8-.6v3.2m53.1-1.4-4.3.3.6 6.7c1 10 5.7 39.8 6.6 41.1.5.9 3.4.4 10.6-1.5l10.3-3c.2-.2-.5-2.3-1.4-4.9-1.7-4.4-1.9-4.5-5.1-4-6.9 1.4-6.8 1.4-8.1-5-.7-3.3-2-11.4-2.9-18-.8-6.6-1.6-12-1.7-12l-4.6.3M271 261v27.2l4.8-.3 4.7-.3.2-7.5.2-8.3c0-.4 1.5 0 3.2.8 3.2 1.7 5.9 6.7 5.9 10.9 0 3 1 3.4 6.4 2.6 4-.5 4.1-.5 3.8-4.4-.5-4.6-3.7-12.6-5.8-14.2-1.3-1-1.2-1.7 1-5 2-2.9 2.6-5 2.6-9.6 0-12-6-17.7-19.8-18.6l-7.2-.5V261m9.7-16.2c-.4.3-.7 3.7-.7 7.5v6.8h3c4.5 0 7.3-5.4 5.4-10.5-.4-.8-2-2.2-3.5-3-3.2-1.7-3.3-1.7-4.2-.8m48.3 40a278.7 278.7 0 0 1-70.7 12.5c-20.7 1.3-56.5-.3-78.3-3.6-8.5-1.3-15.6-2.2-15.8-2-.2.1 1.3 5.5 3.3 12a1496 1496 0 0 1 20.2 72.9c2.6 10.4 8.7 17.7 16.8 20.1 1.7.5 22 .7 47 .4l44.2-.5 4-2.7c7.6-5 9.2-8.2 14.5-29.1 13.8-54 20.2-80.7 19.5-81.3l-4.7 1.2m-19 15.5a296.8 296.8 0 0 1-119.8 3.5c-14.8-2.5-14.3-2.8-11.3 5.6 1 3 3.6 10.7 5.6 17.3l4.9 16 1.3 4 10.6-.3c12.4-.4 14.7 0 14.7 3.2 0 3.6-1.7 4.3-12.5 5a82 82 0 0 0-10.3 1c-.2.3.3 2.6 1 5.3l1.4 4.8 19.5-.4c16.9-.3 19.6-.1 20.8 1.3.8.9 1 2.6.7 4-.5 2-1.3 2.4-7.3 3-3.8.3-12.1.6-18.6.7-13.5.1-14.4.7-10.6 6.4 4 5.8 4.8 5.9 51.4 5 44.8-.7 44.6-.6 47.9-5.8.8-1.2 2.2-5.3 3.1-9.2a973 973 0 0 1 5.1-19.5c3.5-12.9 10.7-42.6 12-49.3.8-4.4.3-4.5-9.6-1.6"/></svg>